<svg version="1.1" xmlns:xlink="http://www.w3.org/1999/xlink" xmlns="http://www.w3.org/2000/svg" width="800" height="400">
    <rect width="800" height="400" stroke="black" stroke-width="0" fill="rgb(120,120,120)"/>
    <line x1="255" y1="175" x2="265" y2="165" style="stroke:rgb(0,0,0);stroke-width:1.2" />
    <line x1="265" y1="165" x2="276" y2="155" style="stroke:rgb(0,0,0);stroke-width:1.2" />
    <line x1="276" y1="155" x2="288" y2="146" style="stroke:rgb(0,0,0);stroke-width:1.2" />
    <line x1="288" y1="146" x2="300" y2="138" style="stroke:rgb(0,0,0);stroke-width:1.2" />
    <line x1="300" y1="138" x2="312" y2="130" style="stroke:rgb(0,0,0);stroke-width:1.2" />
    <line x1="312" y1="130" x2="325" y2="122" style="stroke:rgb(0,0,0);stroke-width:1.2" />
    <line x1="325" y1="122" x2="338" y2="115" style="stroke:rgb(0,0,0);stroke-width:1.2" />
    <line x1="338" y1="115" x2="352" y2="108" style="stroke:rgb(0,0,0);stroke-width:1.2" />
    <line x1="352" y1="108" x2="365" y2="102" style="stroke:rgb(0,0,0);stroke-width:1.2" />
    <line x1="365" y1="102" x2="379" y2="96" style="stroke:rgb(0,0,0);stroke-width:1.2" />
    <line x1="379" y1="96" x2="393" y2="91" style="stroke:rgb(0,0,0);stroke-width:1.2" />
    <line x1="393" y1="91" x2="408" y2="87" style="stroke:rgb(0,0,0);stroke-width:1.2" />
    <line x1="408" y1="87" x2="422" y2="83" style="stroke:rgb(0,0,0);stroke-width:1.2" />
    <line x1="422" y1="83" x2="436" y2="80" style="stroke:rgb(0,0,0);stroke-width:1.2" />
    <line x1="436" y1="80" x2="450" y2="78" style="stroke:rgb(0,0,0);stroke-width:1.2" />
    <line x1="450" y1="78" x2="464" y2="76" style="stroke:rgb(0,0,0);stroke-width:1.2" />
    <line x1="464" y1="76" x2="478" y2="75" style="stroke:rgb(0,0,0);stroke-width:1.2" />
    <line x1="478" y1="75" x2="492" y2="74" style="stroke:rgb(0,0,0);stroke-width:1.2" />
    <line x1="492" y1="74" x2="505" y2="74" style="stroke:rgb(0,0,0);stroke-width:1.2" />
    <line x1="505" y1="74" x2="518" y2="75" style="stroke:rgb(0,0,0);stroke-width:1.2" />
    <line x1="518" y1="75" x2="530" y2="76" style="stroke:rgb(0,0,0);stroke-width:1.2" />
    <line x1="530" y1="76" x2="542" y2="77" style="stroke:rgb(0,0,0);stroke-width:1.2" />
    <line x1="542" y1="77" x2="554" y2="79" style="stroke:rgb(0,0,0);stroke-width:1.2" />
    <line x1="554" y1="79" x2="565" y2="81" style="stroke:rgb(0,0,0);stroke-width:1.2" />
    <line x1="565" y1="81" x2="576" y2="84" style="stroke:rgb(0,0,0);stroke-width:1.2" />
    <line x1="576" y1="84" x2="586" y2="87" style="stroke:rgb(0,0,0);stroke-width:1.2" />
    <line x1="586" y1="87" x2="595" y2="90" style="stroke:rgb(0,0,0);stroke-width:1.2" />
    <line x1="595" y1="90" x2="604" y2="94" style="stroke:rgb(0,0,0);stroke-width:1.2" />
    <line x1="604" y1="94" x2="613" y2="98" style="stroke:rgb(0,0,0);stroke-width:1.2" />
    <line x1="613" y1="98" x2="621" y2="102" style="stroke:rgb(0,0,0);stroke-width:1.2" />
    <line x1="259" y1="236" x2="270" y2="226" style="stroke:rgb(0,0,0);stroke-width:1.2" />
    <line x1="270" y1="226" x2="281" y2="215" style="stroke:rgb(0,0,0);stroke-width:1.2" />
    <line x1="281" y1="215" x2="293" y2="205" style="stroke:rgb(0,0,0);stroke-width:1.2" />
    <line x1="293" y1="205" x2="305" y2="195" style="stroke:rgb(0,0,0);stroke-width:1.2" />
    <line x1="305" y1="195" x2="318" y2="186" style="stroke:rgb(0,0,0);stroke-width:1.2" />
    <line x1="318" y1="186" x2="332" y2="177" style="stroke:rgb(0,0,0);stroke-width:1.2" />
    <line x1="332" y1="177" x2="346" y2="168" style="stroke:rgb(0,0,0);stroke-width:1.2" />
    <line x1="346" y1="168" x2="361" y2="161" style="stroke:rgb(0,0,0);stroke-width:1.2" />
    <line x1="361" y1="161" x2="376" y2="153" style="stroke:rgb(0,0,0);stroke-width:1.2" />
    <line x1="376" y1="153" x2="391" y2="147" style="stroke:rgb(0,0,0);stroke-width:1.2" />
    <line x1="391" y1="147" x2="406" y2="141" style="stroke:rgb(0,0,0);stroke-width:1.2" />
    <line x1="406" y1="141" x2="422" y2="137" style="stroke:rgb(0,0,0);stroke-width:1.2" />
    <line x1="422" y1="137" x2="437" y2="132" style="stroke:rgb(0,0,0);stroke-width:1.2" />
    <line x1="437" y1="132" x2="452" y2="129" style="stroke:rgb(0,0,0);stroke-width:1.2" />
    <line x1="452" y1="129" x2="468" y2="127" style="stroke:rgb(0,0,0);stroke-width:1.2" />
    <line x1="468" y1="127" x2="482" y2="125" style="stroke:rgb(0,0,0);stroke-width:1.2" />
    <line x1="482" y1="125" x2="497" y2="125" style="stroke:rgb(0,0,0);stroke-width:1.2" />
    <line x1="497" y1="125" x2="511" y2="125" style="stroke:rgb(0,0,0);stroke-width:1.2" />
    <line x1="511" y1="125" x2="524" y2="125" style="stroke:rgb(0,0,0);stroke-width:1.2" />
    <line x1="524" y1="125" x2="537" y2="127" style="stroke:rgb(0,0,0);stroke-width:1.2" />
    <line x1="537" y1="127" x2="550" y2="129" style="stroke:rgb(0,0,0);stroke-width:1.2" />
    <line x1="550" y1="129" x2="561" y2="132" style="stroke:rgb(0,0,0);stroke-width:1.2" />
    <line x1="561" y1="132" x2="572" y2="135" style="stroke:rgb(0,0,0);stroke-width:1.2" />
    <line x1="572" y1="135" x2="583" y2="139" style="stroke:rgb(0,0,0);stroke-width:1.2" />
    <line x1="583" y1="139" x2="592" y2="143" style="stroke:rgb(0,0,0);stroke-width:1.2" />
    <line x1="592" y1="143" x2="601" y2="147" style="stroke:rgb(0,0,0);stroke-width:1.2" />
    <line x1="601" y1="147" x2="610" y2="152" style="stroke:rgb(0,0,0);stroke-width:1.2" />
    <line x1="610" y1="152" x2="617" y2="157" style="stroke:rgb(0,0,0);stroke-width:1.2" />
    <line x1="617" y1="157" x2="624" y2="163" style="stroke:rgb(0,0,0);stroke-width:1.2" />
    <line x1="624" y1="163" x2="630" y2="168" style="stroke:rgb(0,0,0);stroke-width:1.2" />
    <line x1="264" y1="310" x2="276" y2="301" style="stroke:rgb(0,0,0);stroke-width:1.2" />
    <line x1="276" y1="301" x2="288" y2="291" style="stroke:rgb(0,0,0);stroke-width:1.2" />
    <line x1="288" y1="291" x2="302" y2="282" style="stroke:rgb(0,0,0);stroke-width:1.2" />
    <line x1="302" y1="282" x2="315" y2="272" style="stroke:rgb(0,0,0);stroke-width:1.2" />
    <line x1="315" y1="272" x2="330" y2="264" style="stroke:rgb(0,0,0);stroke-width:1.2" />
    <line x1="330" y1="264" x2="345" y2="255" style="stroke:rgb(0,0,0);stroke-width:1.2" />
    <line x1="345" y1="255" x2="360" y2="247" style="stroke:rgb(0,0,0);stroke-width:1.2" />
    <line x1="360" y1="247" x2="376" y2="240" style="stroke:rgb(0,0,0);stroke-width:1.2" />
    <line x1="376" y1="240" x2="392" y2="233" style="stroke:rgb(0,0,0);stroke-width:1.2" />
    <line x1="392" y1="233" x2="409" y2="227" style="stroke:rgb(0,0,0);stroke-width:1.2" />
    <line x1="409" y1="227" x2="425" y2="221" style="stroke:rgb(0,0,0);stroke-width:1.2" />
    <line x1="425" y1="221" x2="442" y2="217" style="stroke:rgb(0,0,0);stroke-width:1.2" />
    <line x1="442" y1="217" x2="459" y2="212" style="stroke:rgb(0,0,0);stroke-width:1.2" />
    <line x1="459" y1="212" x2="475" y2="209" style="stroke:rgb(0,0,0);stroke-width:1.2" />
    <line x1="475" y1="209" x2="491" y2="206" style="stroke:rgb(0,0,0);stroke-width:1.2" />
    <line x1="491" y1="206" x2="507" y2="204" style="stroke:rgb(0,0,0);stroke-width:1.2" />
    <line x1="507" y1="204" x2="522" y2="203" style="stroke:rgb(0,0,0);stroke-width:1.2" />
    <line x1="522" y1="203" x2="537" y2="203" style="stroke:rgb(0,0,0);stroke-width:1.2" />
    <line x1="537" y1="203" x2="551" y2="203" style="stroke:rgb(0,0,0);stroke-width:1.2" />
    <line x1="551" y1="203" x2="564" y2="204" style="stroke:rgb(0,0,0);stroke-width:1.2" />
    <line x1="564" y1="204" x2="577" y2="205" style="stroke:rgb(0,0,0);stroke-width:1.2" />
    <line x1="577" y1="205" x2="589" y2="208" style="stroke:rgb(0,0,0);stroke-width:1.2" />
    <line x1="589" y1="208" x2="600" y2="210" style="stroke:rgb(0,0,0);stroke-width:1.2" />
    <line x1="600" y1="210" x2="611" y2="213" style="stroke:rgb(0,0,0);stroke-width:1.2" />
    <line x1="611" y1="213" x2="621" y2="217" style="stroke:rgb(0,0,0);stroke-width:1.2" />
    <line x1="621" y1="217" x2="630" y2="221" style="stroke:rgb(0,0,0);stroke-width:1.2" />
    <line x1="630" y1="221" x2="638" y2="225" style="stroke:rgb(0,0,0);stroke-width:1.2" />
    <line x1="638" y1="225" x2="645" y2="229" style="stroke:rgb(0,0,0);stroke-width:1.2" />
    <line x1="645" y1="229" x2="652" y2="234" style="stroke:rgb(0,0,0);stroke-width:1.2" />
    <line x1="652" y1="234" x2="658" y2="239" style="stroke:rgb(0,0,0);stroke-width:1.2" />
    <line x1="270" y1="400" x2="287" y2="391" style="stroke:rgb(0,0,0);stroke-width:1.2" />
    <line x1="287" y1="391" x2="303" y2="382" style="stroke:rgb(0,0,0);stroke-width:1.2" />
    <line x1="303" y1="382" x2="320" y2="374" style="stroke:rgb(0,0,0);stroke-width:1.2" />
    <line x1="320" y1="374" x2="337" y2="366" style="stroke:rgb(0,0,0);stroke-width:1.2" />
    <line x1="337" y1="366" x2="353" y2="359" style="stroke:rgb(0,0,0);stroke-width:1.2" />
    <line x1="353" y1="359" x2="370" y2="352" style="stroke:rgb(0,0,0);stroke-width:1.2" />
    <line x1="370" y1="352" x2="386" y2="346" style="stroke:rgb(0,0,0);stroke-width:1.2" />
    <line x1="386" y1="346" x2="402" y2="340" style="stroke:rgb(0,0,0);stroke-width:1.2" />
    <line x1="402" y1="340" x2="418" y2="335" style="stroke:rgb(0,0,0);stroke-width:1.2" />
    <line x1="418" y1="335" x2="434" y2="330" style="stroke:rgb(0,0,0);stroke-width:1.2" />
    <line x1="434" y1="330" x2="450" y2="325" style="stroke:rgb(0,0,0);stroke-width:1.2" />
    <line x1="450" y1="325" x2="465" y2="321" style="stroke:rgb(0,0,0);stroke-width:1.2" />
    <line x1="465" y1="321" x2="481" y2="318" style="stroke:rgb(0,0,0);stroke-width:1.2" />
    <line x1="481" y1="318" x2="496" y2="314" style="stroke:rgb(0,0,0);stroke-width:1.2" />
    <line x1="496" y1="314" x2="511" y2="311" style="stroke:rgb(0,0,0);stroke-width:1.2" />
    <line x1="511" y1="311" x2="526" y2="309" style="stroke:rgb(0,0,0);stroke-width:1.2" />
    <line x1="526" y1="309" x2="541" y2="307" style="stroke:rgb(0,0,0);stroke-width:1.2" />
    <line x1="541" y1="307" x2="555" y2="305" style="stroke:rgb(0,0,0);stroke-width:1.2" />
    <line x1="555" y1="305" x2="569" y2="304" style="stroke:rgb(0,0,0);stroke-width:1.2" />
    <line x1="569" y1="304" x2="584" y2="303" style="stroke:rgb(0,0,0);stroke-width:1.2" />
    <line x1="584" y1="303" x2="598" y2="302" style="stroke:rgb(0,0,0);stroke-width:1.2" />
    <line x1="598" y1="302" x2="612" y2="302" style="stroke:rgb(0,0,0);stroke-width:1.2" />
    <line x1="612" y1="302" x2="625" y2="301" style="stroke:rgb(0,0,0);stroke-width:1.2" />
    <line x1="625" y1="301" x2="639" y2="302" style="stroke:rgb(0,0,0);stroke-width:1.2" />
    <line x1="639" y1="302" x2="652" y2="302" style="stroke:rgb(0,0,0);stroke-width:1.2" />
    <line x1="652" y1="302" x2="665" y2="303" style="stroke:rgb(0,0,0);stroke-width:1.2" />
    <line x1="665" y1="303" x2="678" y2="304" style="stroke:rgb(0,0,0);stroke-width:1.2" />
    <line x1="678" y1="304" x2="691" y2="306" style="stroke:rgb(0,0,0);stroke-width:1.2" />
    <line x1="691" y1="306" x2="704" y2="307" style="stroke:rgb(0,0,0);stroke-width:1.2" />
    <line x1="704" y1="307" x2="716" y2="309" style="stroke:rgb(0,0,0);stroke-width:1.2" />
    <line x1="255" y1="175" x2="259" y2="236" style="stroke:rgb(0,0,0);stroke-width:1.2" />
    <circle cx="255" cy="175" r="2.5" stroke="black" stroke-width="1" fill="blue" />
    <circle cx="259" cy="236" r="2.5" stroke="black" stroke-width="1" fill="blue" />
    <line x1="265" y1="165" x2="270" y2="226" style="stroke:rgb(0,0,0);stroke-width:1.2" />
    <circle cx="265" cy="165" r="2.5" stroke="black" stroke-width="1" fill="blue" />
    <circle cx="270" cy="226" r="2.5" stroke="black" stroke-width="1" fill="blue" />
    <line x1="276" y1="155" x2="281" y2="215" style="stroke:rgb(0,0,0);stroke-width:1.2" />
    <circle cx="276" cy="155" r="2.5" stroke="black" stroke-width="1" fill="blue" />
    <circle cx="281" cy="215" r="2.5" stroke="black" stroke-width="1" fill="blue" />
    <line x1="288" y1="146" x2="293" y2="205" style="stroke:rgb(0,0,0);stroke-width:1.2" />
    <circle cx="288" cy="146" r="2.5" stroke="black" stroke-width="1" fill="blue" />
    <circle cx="293" cy="205" r="2.5" stroke="black" stroke-width="1" fill="blue" />
    <line x1="300" y1="138" x2="305" y2="195" style="stroke:rgb(0,0,0);stroke-width:1.2" />
    <circle cx="300" cy="138" r="2.5" stroke="black" stroke-width="1" fill="blue" />
    <circle cx="305" cy="195" r="2.5" stroke="black" stroke-width="1" fill="blue" />
    <line x1="312" y1="130" x2="318" y2="186" style="stroke:rgb(0,0,0);stroke-width:1.2" />
    <circle cx="312" cy="130" r="2.5" stroke="black" stroke-width="1" fill="blue" />
    <circle cx="318" cy="186" r="2.5" stroke="black" stroke-width="1" fill="blue" />
    <line x1="325" y1="122" x2="332" y2="177" style="stroke:rgb(0,0,0);stroke-width:1.2" />
    <circle cx="325" cy="122" r="2.5" stroke="black" stroke-width="1" fill="blue" />
    <circle cx="332" cy="177" r="2.5" stroke="black" stroke-width="1" fill="blue" />
    <line x1="338" y1="115" x2="346" y2="168" style="stroke:rgb(0,0,0);stroke-width:1.2" />
    <circle cx="338" cy="115" r="2.5" stroke="black" stroke-width="1" fill="blue" />
    <circle cx="346" cy="168" r="2.5" stroke="black" stroke-width="1" fill="blue" />
    <line x1="352" y1="108" x2="361" y2="161" style="stroke:rgb(0,0,0);stroke-width:1.2" />
    <circle cx="352" cy="108" r="2.5" stroke="black" stroke-width="1" fill="blue" />
    <circle cx="361" cy="161" r="2.5" stroke="black" stroke-width="1" fill="blue" />
    <line x1="365" y1="102" x2="376" y2="153" style="stroke:rgb(0,0,0);stroke-width:1.2" />
    <circle cx="365" cy="102" r="2.5" stroke="black" stroke-width="1" fill="blue" />
    <circle cx="376" cy="153" r="2.5" stroke="black" stroke-width="1" fill="blue" />
    <line x1="379" y1="96" x2="391" y2="147" style="stroke:rgb(0,0,0);stroke-width:1.2" />
    <circle cx="379" cy="96" r="2.5" stroke="black" stroke-width="1" fill="blue" />
    <circle cx="391" cy="147" r="2.5" stroke="black" stroke-width="1" fill="blue" />
    <line x1="393" y1="91" x2="406" y2="141" style="stroke:rgb(0,0,0);stroke-width:1.2" />
    <circle cx="393" cy="91" r="2.5" stroke="black" stroke-width="1" fill="blue" />
    <circle cx="406" cy="141" r="2.5" stroke="black" stroke-width="1" fill="blue" />
    <line x1="408" y1="87" x2="422" y2="137" style="stroke:rgb(0,0,0);stroke-width:1.2" />
    <circle cx="408" cy="87" r="2.5" stroke="black" stroke-width="1" fill="blue" />
    <circle cx="422" cy="137" r="2.5" stroke="black" stroke-width="1" fill="blue" />
    <line x1="422" y1="83" x2="437" y2="132" style="stroke:rgb(0,0,0);stroke-width:1.2" />
    <circle cx="422" cy="83" r="2.5" stroke="black" stroke-width="1" fill="blue" />
    <circle cx="437" cy="132" r="2.5" stroke="black" stroke-width="1" fill="blue" />
    <line x1="436" y1="80" x2="452" y2="129" style="stroke:rgb(0,0,0);stroke-width:1.2" />
    <circle cx="436" cy="80" r="2.5" stroke="black" stroke-width="1" fill="blue" />
    <circle cx="452" cy="129" r="2.5" stroke="black" stroke-width="1" fill="blue" />
    <line x1="450" y1="78" x2="468" y2="127" style="stroke:rgb(0,0,0);stroke-width:1.2" />
    <circle cx="450" cy="78" r="2.5" stroke="black" stroke-width="1" fill="blue" />
    <circle cx="468" cy="127" r="2.5" stroke="black" stroke-width="1" fill="blue" />
    <line x1="464" y1="76" x2="482" y2="125" style="stroke:rgb(0,0,0);stroke-width:1.2" />
    <circle cx="464" cy="76" r="2.5" stroke="black" stroke-width="1" fill="blue" />
    <circle cx="482" cy="125" r="2.5" stroke="black" stroke-width="1" fill="blue" />
    <line x1="478" y1="75" x2="497" y2="125" style="stroke:rgb(0,0,0);stroke-width:1.2" />
    <circle cx="478" cy="75" r="2.5" stroke="black" stroke-width="1" fill="blue" />
    <circle cx="497" cy="125" r="2.5" stroke="black" stroke-width="1" fill="blue" />
    <line x1="492" y1="74" x2="511" y2="125" style="stroke:rgb(0,0,0);stroke-width:1.2" />
    <circle cx="492" cy="74" r="2.5" stroke="black" stroke-width="1" fill="blue" />
    <circle cx="511" cy="125" r="2.5" stroke="black" stroke-width="1" fill="blue" />
    <line x1="505" y1="74" x2="524" y2="125" style="stroke:rgb(0,0,0);stroke-width:1.2" />
    <circle cx="505" cy="74" r="2.5" stroke="black" stroke-width="1" fill="blue" />
    <circle cx="524" cy="125" r="2.5" stroke="black" stroke-width="1" fill="blue" />
    <line x1="518" y1="75" x2="537" y2="127" style="stroke:rgb(0,0,0);stroke-width:1.2" />
    <circle cx="518" cy="75" r="2.5" stroke="black" stroke-width="1" fill="blue" />
    <circle cx="537" cy="127" r="2.5" stroke="black" stroke-width="1" fill="blue" />
    <line x1="530" y1="76" x2="550" y2="129" style="stroke:rgb(0,0,0);stroke-width:1.2" />
    <circle cx="530" cy="76" r="2.5" stroke="black" stroke-width="1" fill="blue" />
    <circle cx="550" cy="129" r="2.5" stroke="black" stroke-width="1" fill="blue" />
    <line x1="542" y1="77" x2="561" y2="132" style="stroke:rgb(0,0,0);stroke-width:1.2" />
    <circle cx="542" cy="77" r="2.5" stroke="black" stroke-width="1" fill="blue" />
    <circle cx="561" cy="132" r="2.5" stroke="black" stroke-width="1" fill="blue" />
    <line x1="554" y1="79" x2="572" y2="135" style="stroke:rgb(0,0,0);stroke-width:1.2" />
    <circle cx="554" cy="79" r="2.5" stroke="black" stroke-width="1" fill="blue" />
    <circle cx="572" cy="135" r="2.5" stroke="black" stroke-width="1" fill="blue" />
    <line x1="565" y1="81" x2="583" y2="139" style="stroke:rgb(0,0,0);stroke-width:1.2" />
    <circle cx="565" cy="81" r="2.5" stroke="black" stroke-width="1" fill="blue" />
    <circle cx="583" cy="139" r="2.5" stroke="black" stroke-width="1" fill="blue" />
    <line x1="576" y1="84" x2="592" y2="143" style="stroke:rgb(0,0,0);stroke-width:1.2" />
    <circle cx="576" cy="84" r="2.5" stroke="black" stroke-width="1" fill="blue" />
    <circle cx="592" cy="143" r="2.5" stroke="black" stroke-width="1" fill="blue" />
    <line x1="586" y1="87" x2="601" y2="147" style="stroke:rgb(0,0,0);stroke-width:1.2" />
    <circle cx="586" cy="87" r="2.5" stroke="black" stroke-width="1" fill="blue" />
    <circle cx="601" cy="147" r="2.5" stroke="black" stroke-width="1" fill="blue" />
    <line x1="595" y1="90" x2="610" y2="152" style="stroke:rgb(0,0,0);stroke-width:1.2" />
    <circle cx="595" cy="90" r="2.5" stroke="black" stroke-width="1" fill="blue" />
    <circle cx="610" cy="152" r="2.5" stroke="black" stroke-width="1" fill="blue" />
    <line x1="604" y1="94" x2="617" y2="157" style="stroke:rgb(0,0,0);stroke-width:1.2" />
    <circle cx="604" cy="94" r="2.5" stroke="black" stroke-width="1" fill="blue" />
    <circle cx="617" cy="157" r="2.5" stroke="black" stroke-width="1" fill="blue" />
    <line x1="613" y1="98" x2="624" y2="163" style="stroke:rgb(0,0,0);stroke-width:1.2" />
    <circle cx="613" cy="98" r="2.5" stroke="black" stroke-width="1" fill="blue" />
    <circle cx="624" cy="163" r="2.5" stroke="black" stroke-width="1" fill="blue" />
    <line x1="621" y1="102" x2="630" y2="168" style="stroke:rgb(0,0,0);stroke-width:1.2" />
    <circle cx="621" cy="102" r="2.5" stroke="black" stroke-width="1" fill="blue" />
    <circle cx="630" cy="168" r="2.5" stroke="black" stroke-width="1" fill="blue" />
    <line x1="259" y1="236" x2="264" y2="310" style="stroke:rgb(0,0,0);stroke-width:1.2" />
    <circle cx="259" cy="236" r="2.5" stroke="black" stroke-width="1" fill="blue" />
    <circle cx="264" cy="310" r="2.5" stroke="black" stroke-width="1" fill="blue" />
    <line x1="270" y1="226" x2="276" y2="301" style="stroke:rgb(0,0,0);stroke-width:1.2" />
    <circle cx="270" cy="226" r="2.5" stroke="black" stroke-width="1" fill="blue" />
    <circle cx="276" cy="301" r="2.5" stroke="black" stroke-width="1" fill="blue" />
    <line x1="281" y1="215" x2="288" y2="291" style="stroke:rgb(0,0,0);stroke-width:1.2" />
    <circle cx="281" cy="215" r="2.5" stroke="black" stroke-width="1" fill="blue" />
    <circle cx="288" cy="291" r="2.5" stroke="black" stroke-width="1" fill="blue" />
    <line x1="293" y1="205" x2="302" y2="282" style="stroke:rgb(0,0,0);stroke-width:1.2" />
    <circle cx="293" cy="205" r="2.5" stroke="black" stroke-width="1" fill="blue" />
    <circle cx="302" cy="282" r="2.5" stroke="black" stroke-width="1" fill="blue" />
    <line x1="305" y1="195" x2="315" y2="272" style="stroke:rgb(0,0,0);stroke-width:1.2" />
    <circle cx="305" cy="195" r="2.5" stroke="black" stroke-width="1" fill="blue" />
    <circle cx="315" cy="272" r="2.5" stroke="black" stroke-width="1" fill="blue" />
    <line x1="318" y1="186" x2="330" y2="264" style="stroke:rgb(0,0,0);stroke-width:1.2" />
    <circle cx="318" cy="186" r="2.5" stroke="black" stroke-width="1" fill="blue" />
    <circle cx="330" cy="264" r="2.5" stroke="black" stroke-width="1" fill="blue" />
    <line x1="332" y1="177" x2="345" y2="255" style="stroke:rgb(0,0,0);stroke-width:1.2" />
    <circle cx="332" cy="177" r="2.5" stroke="black" stroke-width="1" fill="blue" />
    <circle cx="345" cy="255" r="2.5" stroke="black" stroke-width="1" fill="blue" />
    <line x1="346" y1="168" x2="360" y2="247" style="stroke:rgb(0,0,0);stroke-width:1.2" />
    <circle cx="346" cy="168" r="2.5" stroke="black" stroke-width="1" fill="blue" />
    <circle cx="360" cy="247" r="2.5" stroke="black" stroke-width="1" fill="blue" />
    <line x1="361" y1="161" x2="376" y2="240" style="stroke:rgb(0,0,0);stroke-width:1.2" />
    <circle cx="361" cy="161" r="2.5" stroke="black" stroke-width="1" fill="blue" />
    <circle cx="376" cy="240" r="2.5" stroke="black" stroke-width="1" fill="blue" />
    <line x1="376" y1="153" x2="392" y2="233" style="stroke:rgb(0,0,0);stroke-width:1.2" />
    <circle cx="376" cy="153" r="2.5" stroke="black" stroke-width="1" fill="blue" />
    <circle cx="392" cy="233" r="2.5" stroke="black" stroke-width="1" fill="blue" />
    <line x1="391" y1="147" x2="409" y2="227" style="stroke:rgb(0,0,0);stroke-width:1.2" />
    <circle cx="391" cy="147" r="2.5" stroke="black" stroke-width="1" fill="blue" />
    <circle cx="409" cy="227" r="2.5" stroke="black" stroke-width="1" fill="blue" />
    <line x1="406" y1="141" x2="425" y2="221" style="stroke:rgb(0,0,0);stroke-width:1.2" />
    <circle cx="406" cy="141" r="2.5" stroke="black" stroke-width="1" fill="blue" />
    <circle cx="425" cy="221" r="2.5" stroke="black" stroke-width="1" fill="blue" />
    <line x1="422" y1="137" x2="442" y2="217" style="stroke:rgb(0,0,0);stroke-width:1.2" />
    <circle cx="422" cy="137" r="2.5" stroke="black" stroke-width="1" fill="blue" />
    <circle cx="442" cy="217" r="2.5" stroke="black" stroke-width="1" fill="blue" />
    <line x1="437" y1="132" x2="459" y2="212" style="stroke:rgb(0,0,0);stroke-width:1.2" />
    <circle cx="437" cy="132" r="2.5" stroke="black" stroke-width="1" fill="blue" />
    <circle cx="459" cy="212" r="2.5" stroke="black" stroke-width="1" fill="blue" />
    <line x1="452" y1="129" x2="475" y2="209" style="stroke:rgb(0,0,0);stroke-width:1.2" />
    <circle cx="452" cy="129" r="2.5" stroke="black" stroke-width="1" fill="blue" />
    <circle cx="475" cy="209" r="2.5" stroke="black" stroke-width="1" fill="blue" />
    <line x1="468" y1="127" x2="491" y2="206" style="stroke:rgb(0,0,0);stroke-width:1.2" />
    <circle cx="468" cy="127" r="2.5" stroke="black" stroke-width="1" fill="blue" />
    <circle cx="491" cy="206" r="2.5" stroke="black" stroke-width="1" fill="blue" />
    <line x1="482" y1="125" x2="507" y2="204" style="stroke:rgb(0,0,0);stroke-width:1.2" />
    <circle cx="482" cy="125" r="2.5" stroke="black" stroke-width="1" fill="blue" />
    <circle cx="507" cy="204" r="2.5" stroke="black" stroke-width="1" fill="blue" />
    <line x1="497" y1="125" x2="522" y2="203" style="stroke:rgb(0,0,0);stroke-width:1.2" />
    <circle cx="497" cy="125" r="2.5" stroke="black" stroke-width="1" fill="blue" />
    <circle cx="522" cy="203" r="2.5" stroke="black" stroke-width="1" fill="blue" />
    <line x1="511" y1="125" x2="537" y2="203" style="stroke:rgb(0,0,0);stroke-width:1.2" />
    <circle cx="511" cy="125" r="2.5" stroke="black" stroke-width="1" fill="blue" />
    <circle cx="537" cy="203" r="2.5" stroke="black" stroke-width="1" fill="blue" />
    <line x1="524" y1="125" x2="551" y2="203" style="stroke:rgb(0,0,0);stroke-width:1.2" />
    <circle cx="524" cy="125" r="2.5" stroke="black" stroke-width="1" fill="blue" />
    <circle cx="551" cy="203" r="2.5" stroke="black" stroke-width="1" fill="blue" />
    <line x1="537" y1="127" x2="564" y2="204" style="stroke:rgb(0,0,0);stroke-width:1.2" />
    <circle cx="537" cy="127" r="2.5" stroke="black" stroke-width="1" fill="blue" />
    <circle cx="564" cy="204" r="2.5" stroke="black" stroke-width="1" fill="blue" />
    <line x1="550" y1="129" x2="577" y2="205" style="stroke:rgb(0,0,0);stroke-width:1.2" />
    <circle cx="550" cy="129" r="2.5" stroke="black" stroke-width="1" fill="blue" />
    <circle cx="577" cy="205" r="2.5" stroke="black" stroke-width="1" fill="blue" />
    <line x1="561" y1="132" x2="589" y2="208" style="stroke:rgb(0,0,0);stroke-width:1.2" />
    <circle cx="561" cy="132" r="2.5" stroke="black" stroke-width="1" fill="blue" />
    <circle cx="589" cy="208" r="2.5" stroke="black" stroke-width="1" fill="blue" />
    <line x1="572" y1="135" x2="600" y2="210" style="stroke:rgb(0,0,0);stroke-width:1.2" />
    <circle cx="572" cy="135" r="2.5" stroke="black" stroke-width="1" fill="blue" />
    <circle cx="600" cy="210" r="2.5" stroke="black" stroke-width="1" fill="blue" />
    <line x1="583" y1="139" x2="611" y2="213" style="stroke:rgb(0,0,0);stroke-width:1.2" />
    <circle cx="583" cy="139" r="2.5" stroke="black" stroke-width="1" fill="blue" />
    <circle cx="611" cy="213" r="2.5" stroke="black" stroke-width="1" fill="blue" />
    <line x1="592" y1="143" x2="621" y2="217" style="stroke:rgb(0,0,0);stroke-width:1.2" />
    <circle cx="592" cy="143" r="2.5" stroke="black" stroke-width="1" fill="blue" />
    <circle cx="621" cy="217" r="2.5" stroke="black" stroke-width="1" fill="blue" />
    <line x1="601" y1="147" x2="630" y2="221" style="stroke:rgb(0,0,0);stroke-width:1.2" />
    <circle cx="601" cy="147" r="2.5" stroke="black" stroke-width="1" fill="blue" />
    <circle cx="630" cy="221" r="2.5" stroke="black" stroke-width="1" fill="blue" />
    <line x1="610" y1="152" x2="638" y2="225" style="stroke:rgb(0,0,0);stroke-width:1.2" />
    <circle cx="610" cy="152" r="2.5" stroke="black" stroke-width="1" fill="blue" />
    <circle cx="638" cy="225" r="2.5" stroke="black" stroke-width="1" fill="blue" />
    <line x1="617" y1="157" x2="645" y2="229" style="stroke:rgb(0,0,0);stroke-width:1.2" />
    <circle cx="617" cy="157" r="2.5" stroke="black" stroke-width="1" fill="blue" />
    <circle cx="645" cy="229" r="2.5" stroke="black" stroke-width="1" fill="blue" />
    <line x1="624" y1="163" x2="652" y2="234" style="stroke:rgb(0,0,0);stroke-width:1.2" />
    <circle cx="624" cy="163" r="2.5" stroke="black" stroke-width="1" fill="blue" />
    <circle cx="652" cy="234" r="2.5" stroke="black" stroke-width="1" fill="blue" />
    <line x1="630" y1="168" x2="658" y2="239" style="stroke:rgb(0,0,0);stroke-width:1.2" />
    <circle cx="630" cy="168" r="2.5" stroke="black" stroke-width="1" fill="blue" />
    <circle cx="658" cy="239" r="2.5" stroke="black" stroke-width="1" fill="blue" />
    <line x1="264" y1="310" x2="270" y2="400" style="stroke:rgb(0,0,0);stroke-width:1.2" />
    <circle cx="264" cy="310" r="2.5" stroke="black" stroke-width="1" fill="blue" />
    <circle cx="270" cy="400" r="2.5" stroke="black" stroke-width="1" fill="blue" />
    <line x1="276" y1="301" x2="287" y2="391" style="stroke:rgb(0,0,0);stroke-width:1.2" />
    <circle cx="276" cy="301" r="2.5" stroke="black" stroke-width="1" fill="blue" />
    <circle cx="287" cy="391" r="2.5" stroke="black" stroke-width="1" fill="blue" />
    <line x1="288" y1="291" x2="303" y2="382" style="stroke:rgb(0,0,0);stroke-width:1.2" />
    <circle cx="288" cy="291" r="2.5" stroke="black" stroke-width="1" fill="blue" />
    <circle cx="303" cy="382" r="2.5" stroke="black" stroke-width="1" fill="blue" />
    <line x1="302" y1="282" x2="320" y2="374" style="stroke:rgb(0,0,0);stroke-width:1.2" />
    <circle cx="302" cy="282" r="2.5" stroke="black" stroke-width="1" fill="blue" />
    <circle cx="320" cy="374" r="2.5" stroke="black" stroke-width="1" fill="blue" />
    <line x1="315" y1="272" x2="337" y2="366" style="stroke:rgb(0,0,0);stroke-width:1.2" />
    <circle cx="315" cy="272" r="2.5" stroke="black" stroke-width="1" fill="blue" />
    <circle cx="337" cy="366" r="2.5" stroke="black" stroke-width="1" fill="blue" />
    <line x1="330" y1="264" x2="353" y2="359" style="stroke:rgb(0,0,0);stroke-width:1.2" />
    <circle cx="330" cy="264" r="2.5" stroke="black" stroke-width="1" fill="blue" />
    <circle cx="353" cy="359" r="2.5" stroke="black" stroke-width="1" fill="blue" />
    <line x1="345" y1="255" x2="370" y2="352" style="stroke:rgb(0,0,0);stroke-width:1.2" />
    <circle cx="345" cy="255" r="2.5" stroke="black" stroke-width="1" fill="blue" />
    <circle cx="370" cy="352" r="2.5" stroke="black" stroke-width="1" fill="blue" />
    <line x1="360" y1="247" x2="386" y2="346" style="stroke:rgb(0,0,0);stroke-width:1.2" />
    <circle cx="360" cy="247" r="2.5" stroke="black" stroke-width="1" fill="blue" />
    <circle cx="386" cy="346" r="2.5" stroke="black" stroke-width="1" fill="blue" />
    <line x1="376" y1="240" x2="402" y2="340" style="stroke:rgb(0,0,0);stroke-width:1.2" />
    <circle cx="376" cy="240" r="2.5" stroke="black" stroke-width="1" fill="blue" />
    <circle cx="402" cy="340" r="2.5" stroke="black" stroke-width="1" fill="blue" />
    <line x1="392" y1="233" x2="418" y2="335" style="stroke:rgb(0,0,0);stroke-width:1.2" />
    <circle cx="392" cy="233" r="2.5" stroke="black" stroke-width="1" fill="blue" />
    <circle cx="418" cy="335" r="2.5" stroke="black" stroke-width="1" fill="blue" />
    <line x1="409" y1="227" x2="434" y2="330" style="stroke:rgb(0,0,0);stroke-width:1.2" />
    <circle cx="409" cy="227" r="2.5" stroke="black" stroke-width="1" fill="blue" />
    <circle cx="434" cy="330" r="2.5" stroke="black" stroke-width="1" fill="blue" />
    <line x1="425" y1="221" x2="450" y2="325" style="stroke:rgb(0,0,0);stroke-width:1.2" />
    <circle cx="425" cy="221" r="2.5" stroke="black" stroke-width="1" fill="blue" />
    <circle cx="450" cy="325" r="2.5" stroke="black" stroke-width="1" fill="blue" />
    <line x1="442" y1="217" x2="465" y2="321" style="stroke:rgb(0,0,0);stroke-width:1.2" />
    <circle cx="442" cy="217" r="2.5" stroke="black" stroke-width="1" fill="blue" />
    <circle cx="465" cy="321" r="2.5" stroke="black" stroke-width="1" fill="blue" />
    <line x1="459" y1="212" x2="481" y2="318" style="stroke:rgb(0,0,0);stroke-width:1.2" />
    <circle cx="459" cy="212" r="2.5" stroke="black" stroke-width="1" fill="blue" />
    <circle cx="481" cy="318" r="2.5" stroke="black" stroke-width="1" fill="blue" />
    <line x1="475" y1="209" x2="496" y2="314" style="stroke:rgb(0,0,0);stroke-width:1.2" />
    <circle cx="475" cy="209" r="2.5" stroke="black" stroke-width="1" fill="blue" />
    <circle cx="496" cy="314" r="2.5" stroke="black" stroke-width="1" fill="blue" />
    <line x1="491" y1="206" x2="511" y2="311" style="stroke:rgb(0,0,0);stroke-width:1.2" />
    <circle cx="491" cy="206" r="2.5" stroke="black" stroke-width="1" fill="blue" />
    <circle cx="511" cy="311" r="2.5" stroke="black" stroke-width="1" fill="blue" />
    <line x1="507" y1="204" x2="526" y2="309" style="stroke:rgb(0,0,0);stroke-width:1.2" />
    <circle cx="507" cy="204" r="2.5" stroke="black" stroke-width="1" fill="blue" />
    <circle cx="526" cy="309" r="2.5" stroke="black" stroke-width="1" fill="blue" />
    <line x1="522" y1="203" x2="541" y2="307" style="stroke:rgb(0,0,0);stroke-width:1.2" />
    <circle cx="522" cy="203" r="2.5" stroke="black" stroke-width="1" fill="blue" />
    <circle cx="541" cy="307" r="2.5" stroke="black" stroke-width="1" fill="blue" />
    <line x1="537" y1="203" x2="555" y2="305" style="stroke:rgb(0,0,0);stroke-width:1.2" />
    <circle cx="537" cy="203" r="2.5" stroke="black" stroke-width="1" fill="blue" />
    <circle cx="555" cy="305" r="2.5" stroke="black" stroke-width="1" fill="blue" />
    <line x1="551" y1="203" x2="569" y2="304" style="stroke:rgb(0,0,0);stroke-width:1.2" />
    <circle cx="551" cy="203" r="2.5" stroke="black" stroke-width="1" fill="blue" />
    <circle cx="569" cy="304" r="2.5" stroke="black" stroke-width="1" fill="blue" />
    <line x1="564" y1="204" x2="584" y2="303" style="stroke:rgb(0,0,0);stroke-width:1.2" />
    <circle cx="564" cy="204" r="2.5" stroke="black" stroke-width="1" fill="blue" />
    <circle cx="584" cy="303" r="2.5" stroke="black" stroke-width="1" fill="blue" />
    <line x1="577" y1="205" x2="598" y2="302" style="stroke:rgb(0,0,0);stroke-width:1.2" />
    <circle cx="577" cy="205" r="2.5" stroke="black" stroke-width="1" fill="blue" />
    <circle cx="598" cy="302" r="2.5" stroke="black" stroke-width="1" fill="blue" />
    <line x1="589" y1="208" x2="612" y2="302" style="stroke:rgb(0,0,0);stroke-width:1.2" />
    <circle cx="589" cy="208" r="2.5" stroke="black" stroke-width="1" fill="blue" />
    <circle cx="612" cy="302" r="2.5" stroke="black" stroke-width="1" fill="blue" />
    <line x1="600" y1="210" x2="625" y2="301" style="stroke:rgb(0,0,0);stroke-width:1.2" />
    <circle cx="600" cy="210" r="2.5" stroke="black" stroke-width="1" fill="blue" />
    <circle cx="625" cy="301" r="2.5" stroke="black" stroke-width="1" fill="blue" />
    <line x1="611" y1="213" x2="639" y2="302" style="stroke:rgb(0,0,0);stroke-width:1.2" />
    <circle cx="611" cy="213" r="2.5" stroke="black" stroke-width="1" fill="blue" />
    <circle cx="639" cy="302" r="2.5" stroke="black" stroke-width="1" fill="blue" />
    <line x1="621" y1="217" x2="652" y2="302" style="stroke:rgb(0,0,0);stroke-width:1.2" />
    <circle cx="621" cy="217" r="2.5" stroke="black" stroke-width="1" fill="blue" />
    <circle cx="652" cy="302" r="2.5" stroke="black" stroke-width="1" fill="blue" />
    <line x1="630" y1="221" x2="665" y2="303" style="stroke:rgb(0,0,0);stroke-width:1.2" />
    <circle cx="630" cy="221" r="2.5" stroke="black" stroke-width="1" fill="blue" />
    <circle cx="665" cy="303" r="2.5" stroke="black" stroke-width="1" fill="blue" />
    <line x1="638" y1="225" x2="678" y2="304" style="stroke:rgb(0,0,0);stroke-width:1.2" />
    <circle cx="638" cy="225" r="2.5" stroke="black" stroke-width="1" fill="blue" />
    <circle cx="678" cy="304" r="2.5" stroke="black" stroke-width="1" fill="blue" />
    <line x1="645" y1="229" x2="691" y2="306" style="stroke:rgb(0,0,0);stroke-width:1.2" />
    <circle cx="645" cy="229" r="2.5" stroke="black" stroke-width="1" fill="blue" />
    <circle cx="691" cy="306" r="2.5" stroke="black" stroke-width="1" fill="blue" />
    <line x1="652" y1="234" x2="704" y2="307" style="stroke:rgb(0,0,0);stroke-width:1.2" />
    <circle cx="652" cy="234" r="2.5" stroke="black" stroke-width="1" fill="blue" />
    <circle cx="704" cy="307" r="2.5" stroke="black" stroke-width="1" fill="blue" />
    <line x1="658" y1="239" x2="716" y2="309" style="stroke:rgb(0,0,0);stroke-width:1.2" />
    <circle cx="658" cy="239" r="2.5" stroke="black" stroke-width="1" fill="blue" />
    <circle cx="716" cy="309" r="2.5" stroke="black" stroke-width="1" fill="blue" />
    <line x1="255" y1="175" x2="374" y2="59" style="stroke:rgb(255,0,0);stroke-width:1.2" />
    <line x1="374" y1="59" x2="525" y2="50" style="stroke:rgb(255,0,0);stroke-width:1.2" />
    <line x1="525" y1="50" x2="621" y2="102" style="stroke:rgb(255,0,0);stroke-width:1.2" />
    <line x1="259" y1="236" x2="391" y2="96" style="stroke:rgb(255,0,0);stroke-width:1.2" />
    <line x1="391" y1="96" x2="551" y2="93" style="stroke:rgb(255,0,0);stroke-width:1.2" />
    <line x1="551" y1="93" x2="630" y2="168" style="stroke:rgb(255,0,0);stroke-width:1.2" />
    <line x1="264" y1="310" x2="414" y2="182" style="stroke:rgb(255,0,0);stroke-width:1.2" />
    <line x1="414" y1="182" x2="581" y2="172" style="stroke:rgb(255,0,0);stroke-width:1.2" />
    <line x1="581" y1="172" x2="658" y2="239" style="stroke:rgb(255,0,0);stroke-width:1.2" />
    <line x1="270" y1="400" x2="431" y2="309" style="stroke:rgb(255,0,0);stroke-width:1.2" />
    <line x1="431" y1="309" x2="590" y2="288" style="stroke:rgb(255,0,0);stroke-width:1.2" />
    <line x1="590" y1="288" x2="716" y2="309" style="stroke:rgb(255,0,0);stroke-width:1.2" />
    <line x1="255" y1="175" x2="259" y2="236" style="stroke:rgb(255,0,0);stroke-width:1.2" />
    <line x1="374" y1="59" x2="391" y2="96" style="stroke:rgb(255,0,0);stroke-width:1.2" />
    <line x1="525" y1="50" x2="551" y2="93" style="stroke:rgb(255,0,0);stroke-width:1.2" />
    <line x1="621" y1="102" x2="630" y2="168" style="stroke:rgb(255,0,0);stroke-width:1.2" />
    <line x1="259" y1="236" x2="264" y2="310" style="stroke:rgb(255,0,0);stroke-width:1.2" />
    <line x1="391" y1="96" x2="414" y2="182" style="stroke:rgb(255,0,0);stroke-width:1.2" />
    <line x1="551" y1="93" x2="581" y2="172" style="stroke:rgb(255,0,0);stroke-width:1.2" />
    <line x1="630" y1="168" x2="658" y2="239" style="stroke:rgb(255,0,0);stroke-width:1.2" />
    <line x1="264" y1="310" x2="270" y2="400" style="stroke:rgb(255,0,0);stroke-width:1.2" />
    <line x1="414" y1="182" x2="431" y2="309" style="stroke:rgb(255,0,0);stroke-width:1.2" />
    <line x1="581" y1="172" x2="590" y2="288" style="stroke:rgb(255,0,0);stroke-width:1.2" />
    <line x1="658" y1="239" x2="716" y2="309" style="stroke:rgb(255,0,0);stroke-width:1.2" />
</svg>