<svg version="1.1" xmlns:xlink="http://www.w3.org/1999/xlink" xmlns="http://www.w3.org/2000/svg" width="400" height="300">
    <rect width="400" height="300" stroke="black" stroke-width="0" fill="rgb(150,150,150)"/>
    <rect x="220.884" y="247.684" width="4" height="4" style="fill:white;stroke:pink;stroke-width:0;opacity:1" />
    <rect x="249.816" y="223.72" width="4" height="4" style="fill:white;stroke:pink;stroke-width:0;opacity:1" />
    <line x1="222.884" y1="249.684" x2="251.816" y2="225.72" style="stroke:rgb(255,255,255);stroke-width:1.2" />
    <line x1="222.884" y1="249.684" x2="172.225" y2="234.769" style="stroke:rgb(255,255,255);stroke-width:1.2" />
    <line x1="251.816" y1="225.72" x2="202.773" y2="165.19" style="stroke:rgb(255,255,255);stroke-width:1.2" />
    <rect x="249.816" y="223.72" width="4" height="4" style="fill:white;stroke:pink;stroke-width:0;opacity:1" />
    <rect x="276.169" y="201.892" width="4" height="4" style="fill:white;stroke:pink;stroke-width:0;opacity:1" />
    <line x1="251.816" y1="225.72" x2="278.169" y2="203.892" style="stroke:rgb(255,255,255);stroke-width:1.2" />
    <line x1="251.816" y1="225.72" x2="202.773" y2="165.19" style="stroke:rgb(255,255,255);stroke-width:1.2" />
    <line x1="278.169" y1="203.892" x2="231.765" y2="145.754" style="stroke:rgb(255,255,255);stroke-width:1.2" />
    <rect x="276.169" y="201.892" width="4" height="4" style="fill:white;stroke:pink;stroke-width:0;opacity:1" />
    <rect x="300.274" y="181.926" width="4" height="4" style="fill:white;stroke:pink;stroke-width:0;opacity:1" />
    <line x1="278.169" y1="203.892" x2="302.274" y2="183.926" style="stroke:rgb(255,255,255);stroke-width:1.2" />
    <line x1="278.169" y1="203.892" x2="231.765" y2="145.754" style="stroke:rgb(255,255,255);stroke-width:1.2" />
    <line x1="302.274" y1="183.926" x2="255.916" y2="172.541" style="stroke:rgb(255,255,255);stroke-width:1.2" />
    <rect x="170.225" y="232.769" width="4" height="4" style="fill:white;stroke:pink;stroke-width:0;opacity:1" />
    <rect x="200.773" y="163.19" width="4" height="4" style="fill:white;stroke:pink;stroke-width:0;opacity:1" />
    <line x1="172.225" y1="234.769" x2="202.773" y2="165.19" style="stroke:rgb(255,255,255);stroke-width:1.2" />
    <line x1="172.225" y1="234.769" x2="124.423" y2="220.695" style="stroke:rgb(255,255,255);stroke-width:1.2" />
    <line x1="202.773" y1="165.19" x2="154.193" y2="153.099" style="stroke:rgb(255,255,255);stroke-width:1.2" />
    <rect x="200.773" y="163.19" width="4" height="4" style="fill:white;stroke:pink;stroke-width:0;opacity:1" />
    <rect x="229.765" y="143.754" width="4" height="4" style="fill:white;stroke:pink;stroke-width:0;opacity:1" />
    <line x1="202.773" y1="165.19" x2="231.765" y2="145.754" style="stroke:rgb(255,255,255);stroke-width:1.2" />
    <line x1="202.773" y1="165.19" x2="154.193" y2="153.099" style="stroke:rgb(255,255,255);stroke-width:1.2" />
    <line x1="231.765" y1="145.754" x2="184.545" y2="134.719" style="stroke:rgb(255,255,255);stroke-width:1.2" />
    <rect x="229.765" y="143.754" width="4" height="4" style="fill:white;stroke:pink;stroke-width:0;opacity:1" />
    <rect x="253.916" y="170.541" width="4" height="4" style="fill:white;stroke:pink;stroke-width:0;opacity:1" />
    <line x1="231.765" y1="145.754" x2="255.916" y2="172.541" style="stroke:rgb(255,255,255);stroke-width:1.2" />
    <line x1="231.765" y1="145.754" x2="184.545" y2="134.719" style="stroke:rgb(255,255,255);stroke-width:1.2" />
    <line x1="255.916" y1="172.541" x2="211.854" y2="161.721" style="stroke:rgb(255,255,255);stroke-width:1.2" />
    <rect x="122.423" y="218.695" width="4" height="4" style="fill:white;stroke:pink;stroke-width:0;opacity:1" />
    <rect x="152.193" y="151.099" width="4" height="4" style="fill:white;stroke:pink;stroke-width:0;opacity:1" />
    <line x1="124.423" y1="220.695" x2="154.193" y2="153.099" style="stroke:rgb(255,255,255);stroke-width:1.2" />
    <line x1="124.423" y1="220.695" x2="79.2444" y2="207.394" style="stroke:rgb(255,255,255);stroke-width:1.2" />
    <line x1="154.193" y1="153.099" x2="112.068" y2="187.134" style="stroke:rgb(255,255,255);stroke-width:1.2" />
    <rect x="152.193" y="151.099" width="4" height="4" style="fill:white;stroke:pink;stroke-width:0;opacity:1" />
    <rect x="182.545" y="132.719" width="4" height="4" style="fill:white;stroke:pink;stroke-width:0;opacity:1" />
    <line x1="154.193" y1="153.099" x2="184.545" y2="134.719" style="stroke:rgb(255,255,255);stroke-width:1.2" />
    <line x1="154.193" y1="153.099" x2="112.068" y2="187.134" style="stroke:rgb(255,255,255);stroke-width:1.2" />
    <line x1="184.545" y1="134.719" x2="142.187" y2="168.544" style="stroke:rgb(255,255,255);stroke-width:1.2" />
    <rect x="182.545" y="132.719" width="4" height="4" style="fill:white;stroke:pink;stroke-width:0;opacity:1" />
    <rect x="209.854" y="159.721" width="4" height="4" style="fill:white;stroke:pink;stroke-width:0;opacity:1" />
    <line x1="184.545" y1="134.719" x2="211.854" y2="161.721" style="stroke:rgb(255,255,255);stroke-width:1.2" />
    <line x1="184.545" y1="134.719" x2="142.187" y2="168.544" style="stroke:rgb(255,255,255);stroke-width:1.2" />
    <line x1="211.854" y1="161.721" x2="169.924" y2="151.424" style="stroke:rgb(255,255,255);stroke-width:1.2" />
    <rect x="77.2444" y="205.394" width="4" height="4" style="fill:white;stroke:pink;stroke-width:0;opacity:1" />
    <rect x="110.068" y="185.134" width="4" height="4" style="fill:white;stroke:pink;stroke-width:0;opacity:1" />
    <line x1="79.2444" y1="207.394" x2="112.068" y2="187.134" style="stroke:rgb(255,255,255);stroke-width:1.2" />
    <rect x="110.068" y="185.134" width="4" height="4" style="fill:white;stroke:pink;stroke-width:0;opacity:1" />
    <rect x="140.187" y="166.544" width="4" height="4" style="fill:white;stroke:pink;stroke-width:0;opacity:1" />
    <line x1="112.068" y1="187.134" x2="142.187" y2="168.544" style="stroke:rgb(255,255,255);stroke-width:1.2" />
    <rect x="140.187" y="166.544" width="4" height="4" style="fill:white;stroke:pink;stroke-width:0;opacity:1" />
    <rect x="167.924" y="149.424" width="4" height="4" style="fill:white;stroke:pink;stroke-width:0;opacity:1" />
    <line x1="142.187" y1="168.544" x2="169.924" y2="151.424" style="stroke:rgb(255,255,255);stroke-width:1.2" />
    <line x1="79.2444" y1="207.394" x2="222.884" y2="249.684" style="stroke:rgb(0,255,0);stroke-width:1.2" />
    <line x1="73.7889" y1="160.713" x2="224.015" y2="200.7" style="stroke:rgb(0,255,0);stroke-width:1.2" />
    <line x1="79.2444" y1="207.394" x2="73.7889" y2="160.713" style="stroke:rgb(0,255,0);stroke-width:1.2" />
    <line x1="222.884" y1="249.684" x2="224.015" y2="200.7" style="stroke:rgb(0,255,0);stroke-width:1.2" />
    <line x1="79.2444" y1="207.394" x2="169.924" y2="151.424" style="stroke:rgb(0,255,0);stroke-width:1.2" />
    <line x1="73.7889" y1="160.713" x2="168.732" y2="108.286" style="stroke:rgb(0,255,0);stroke-width:1.2" />
    <line x1="169.924" y1="151.424" x2="168.732" y2="108.286" style="stroke:rgb(0,255,0);stroke-width:1.2" />
    <line x1="222.884" y1="249.684" x2="302.274" y2="183.926" style="stroke:rgb(0,255,0);stroke-width:1.2" />
    <line x1="224.015" y1="200.7" x2="306.655" y2="138.662" style="stroke:rgb(0,255,0);stroke-width:1.2" />
    <line x1="302.274" y1="183.926" x2="306.655" y2="138.662" style="stroke:rgb(0,255,0);stroke-width:1.2" />
    <line x1="302.274" y1="183.926" x2="169.924" y2="151.424" style="stroke:rgb(0,255,0);stroke-width:1.2" />
    <line x1="306.655" y1="138.662" x2="168.732" y2="108.286" style="stroke:rgb(0,255,0);stroke-width:1.2" />
</svg>