<svg version="1.1" xmlns:xlink="http://www.w3.org/1999/xlink" xmlns="http://www.w3.org/2000/svg" width="400" height="300">
    <rect width="400" height="300" stroke="black" stroke-width="0" fill="rgb(120,120,120)"/>
    <circle cx="20" cy="270" r="2.5" stroke="black" stroke-width="1" fill="blue" />
    <circle cx="60" cy="40" r="2.5" stroke="black" stroke-width="1" fill="blue" />
    <circle cx="120" cy="130" r="2.5" stroke="black" stroke-width="1" fill="blue" />
    <circle cx="185" cy="180" r="2.5" stroke="black" stroke-width="1" fill="blue" />
    <circle cx="260" cy="90" r="2.5" stroke="black" stroke-width="1" fill="blue" />
    <circle cx="345" cy="140" r="2.5" stroke="black" stroke-width="1" fill="blue" />
    <circle cx="340" cy="210" r="2.5" stroke="black" stroke-width="1" fill="blue" />
    <circle cx="nan" cy="nan" r="0.8" stroke="black" stroke-width="0.3" fill="red" />
    <circle cx="20" cy="270" r="0.8" stroke="black" stroke-width="0.3" fill="red" />
    <circle cx="20" cy="270" r="0.8" stroke="black" stroke-width="0.3" fill="red" />
    <circle cx="20" cy="270" r="0.8" stroke="black" stroke-width="0.3" fill="red" />
    <circle cx="22.8571" cy="253.571" r="0.8" stroke="black" stroke-width="0.3" fill="red" />
    <circle cx="29.4118" cy="215.882" r="0.8" stroke="black" stroke-width="0.3" fill="red" />
    <circle cx="40" cy="155" r="0.8" stroke="black" stroke-width="0.3" fill="red" />
    <circle cx="54.4444" cy="96.1111" r="0.8" stroke="black" stroke-width="0.3" fill="red" />
    <circle cx="71.1111" cy="72.7778" r="0.8" stroke="black" stroke-width="0.3" fill="red" />
    <circle cx="90" cy="85" r="0.8" stroke="black" stroke-width="0.3" fill="red" />
    <circle cx="110.278" cy="112.778" r="0.8" stroke="black" stroke-width="0.3" fill="red" />
    <circle cx="131.111" cy="136.111" r="0.8" stroke="black" stroke-width="0.3" fill="red" />
    <circle cx="152.5" cy="155" r="0.8" stroke="black" stroke-width="0.3" fill="red" />
    <circle cx="174.722" cy="163.889" r="0.8" stroke="black" stroke-width="0.3" fill="red" />
    <circle cx="198.056" cy="157.222" r="0.8" stroke="black" stroke-width="0.3" fill="red" />
    <circle cx="222.5" cy="135" r="0.8" stroke="black" stroke-width="0.3" fill="red" />
    <circle cx="248.056" cy="112.778" r="0.8" stroke="black" stroke-width="0.3" fill="red" />
    <circle cx="274.722" cy="106.111" r="0.8" stroke="black" stroke-width="0.3" fill="red" />
    <circle cx="302.5" cy="115" r="0.8" stroke="black" stroke-width="0.3" fill="red" />
    <circle cx="325.833" cy="132.778" r="0.8" stroke="black" stroke-width="0.3" fill="red" />
    <circle cx="339.167" cy="152.778" r="0.8" stroke="black" stroke-width="0.3" fill="red" />
    <circle cx="342.5" cy="175" r="0.8" stroke="black" stroke-width="0.3" fill="red" />
    <circle cx="341.176" cy="193.529" r="0.8" stroke="black" stroke-width="0.3" fill="red" />
    <circle cx="340.357" cy="205" r="0.8" stroke="black" stroke-width="0.3" fill="red" />
    <circle cx="340" cy="210" r="0.8" stroke="black" stroke-width="0.3" fill="red" />
    <circle cx="340" cy="210" r="0.8" stroke="black" stroke-width="0.3" fill="red" />
    <circle cx="340" cy="210" r="0.8" stroke="black" stroke-width="0.3" fill="red" />
    <circle cx="nan" cy="nan" r="0.8" stroke="black" stroke-width="0.3" fill="red" />
    <circle cx="nan" cy="nan" r="0.8" stroke="black" stroke-width="0.3" fill="red" />
    <circle cx="nan" cy="nan" r="0.8" stroke="black" stroke-width="0.3" fill="red" />
    <circle cx="nan" cy="nan" r="0.8" stroke="black" stroke-width="0.3" fill="red" />
</svg>