<svg version="1.1" xmlns:xlink="http://www.w3.org/1999/xlink" xmlns="http://www.w3.org/2000/svg" width="400" height="300">
    <rect width="400" height="300" stroke="black" stroke-width="0" fill="rgb(150,150,150)"/>
    <line x1="81.6912" y1="161.674" x2="81.6912" y2="161.674" style="stroke:rgb(0,25,115);stroke-width:0.8" />
    <line x1="81.6912" y1="161.674" x2="81.7731" y2="161.503" style="stroke:rgb(0,25,115);stroke-width:0.8" />
    <line x1="81.7731" y1="161.503" x2="82.2145" y2="160.578" style="stroke:rgb(0,25,115);stroke-width:0.8" />
    <line x1="82.2145" y1="160.578" x2="82.8829" y2="159.179" style="stroke:rgb(0,25,115);stroke-width:0.8" />
    <line x1="82.8829" y1="159.179" x2="83.7715" y2="157.318" style="stroke:rgb(0,25,115);stroke-width:0.8" />
    <line x1="83.7715" y1="157.318" x2="84.9403" y2="154.87" style="stroke:rgb(0,25,115);stroke-width:0.8" />
    <line x1="84.9403" y1="154.87" x2="86.5113" y2="151.581" style="stroke:rgb(0,25,115);stroke-width:0.8" />
    <line x1="86.5113" y1="151.581" x2="88.6201" y2="147.186" style="stroke:rgb(0,25,115);stroke-width:0.8" />
    <line x1="88.6201" y1="147.186" x2="90.9356" y2="142.517" style="stroke:rgb(0,25,115);stroke-width:0.8" />
    <line x1="90.9356" y1="142.517" x2="93.3785" y2="137.779" style="stroke:rgb(0,25,115);stroke-width:0.8" />
    <line x1="93.3785" y1="137.779" x2="95.9394" y2="133.014" style="stroke:rgb(0,25,115);stroke-width:0.8" />
    <line x1="95.9394" y1="133.014" x2="98.6048" y2="128.269" style="stroke:rgb(0,25,115);stroke-width:0.8" />
    <line x1="98.6048" y1="128.269" x2="101.357" y2="123.598" style="stroke:rgb(0,25,115);stroke-width:0.8" />
    <line x1="101.357" y1="123.598" x2="104.174" y2="119.061" style="stroke:rgb(0,25,115);stroke-width:0.8" />
    <line x1="104.174" y1="119.061" x2="107.028" y2="114.723" style="stroke:rgb(0,25,115);stroke-width:0.8" />
    <line x1="107.028" y1="114.723" x2="109.89" y2="110.652" style="stroke:rgb(0,25,115);stroke-width:0.8" />
    <line x1="109.89" y1="110.652" x2="112.725" y2="106.916" style="stroke:rgb(0,25,115);stroke-width:0.8" />
    <line x1="112.725" y1="106.916" x2="115.497" y2="103.582" style="stroke:rgb(0,25,115);stroke-width:0.8" />
    <line x1="115.497" y1="103.582" x2="118.168" y2="100.71" style="stroke:rgb(0,25,115);stroke-width:0.8" />
    <line x1="118.168" y1="100.71" x2="120.7" y2="98.3552" style="stroke:rgb(0,25,115);stroke-width:0.8" />
    <line x1="120.7" y1="98.3552" x2="123.06" y2="96.5583" style="stroke:rgb(0,25,115);stroke-width:0.8" />
    <line x1="123.06" y1="96.5583" x2="125.214" y2="95.3495" style="stroke:rgb(0,25,115);stroke-width:0.8" />
    <line x1="125.214" y1="95.3495" x2="127.197" y2="94.713" style="stroke:rgb(0,25,115);stroke-width:0.8" />
    <line x1="127.197" y1="94.713" x2="129.354" y2="94.4686" style="stroke:rgb(0,25,115);stroke-width:0.8" />
    <line x1="129.354" y1="94.4686" x2="131.713" y2="94.5793" style="stroke:rgb(0,25,115);stroke-width:0.8" />
    <line x1="131.713" y1="94.5793" x2="134.234" y2="95.03" style="stroke:rgb(0,25,115);stroke-width:0.8" />
    <line x1="134.234" y1="95.03" x2="136.878" y2="95.7981" style="stroke:rgb(0,25,115);stroke-width:0.8" />
    <line x1="136.878" y1="95.7981" x2="139.604" y2="96.8545" style="stroke:rgb(0,25,115);stroke-width:0.8" />
    <line x1="139.604" y1="96.8545" x2="142.373" y2="98.1655" style="stroke:rgb(0,25,115);stroke-width:0.8" />
    <line x1="142.373" y1="98.1655" x2="145.15" y2="99.6953" style="stroke:rgb(0,25,115);stroke-width:0.8" />
    <line x1="145.15" y1="99.6953" x2="147.902" y2="101.407" style="stroke:rgb(0,25,115);stroke-width:0.8" />
    <line x1="147.902" y1="101.407" x2="150.603" y2="103.264" style="stroke:rgb(0,25,115);stroke-width:0.8" />
    <line x1="150.603" y1="103.264" x2="153.228" y2="105.232" style="stroke:rgb(0,25,115);stroke-width:0.8" />
    <line x1="153.228" y1="105.232" x2="155.76" y2="107.279" style="stroke:rgb(0,25,115);stroke-width:0.8" />
    <line x1="155.76" y1="107.279" x2="158.186" y2="109.375" style="stroke:rgb(0,25,115);stroke-width:0.8" />
    <line x1="158.186" y1="109.375" x2="160.495" y2="111.497" style="stroke:rgb(0,25,115);stroke-width:0.8" />
    <line x1="160.495" y1="111.497" x2="162.682" y2="113.621" style="stroke:rgb(0,25,115);stroke-width:0.8" />
    <line x1="162.682" y1="113.621" x2="164.743" y2="115.731" style="stroke:rgb(0,25,115);stroke-width:0.8" />
    <line x1="164.743" y1="115.731" x2="166.679" y2="117.81" style="stroke:rgb(0,25,115);stroke-width:0.8" />
    <line x1="166.679" y1="117.81" x2="168.49" y2="119.847" style="stroke:rgb(0,25,115);stroke-width:0.8" />
    <line x1="168.49" y1="119.847" x2="170.096" y2="121.723" style="stroke:rgb(0,25,115);stroke-width:0.8" />
    <line x1="170.096" y1="121.723" x2="171.116" y2="122.922" style="stroke:rgb(0,25,115);stroke-width:0.8" />
    <line x1="171.116" y1="122.922" x2="171.642" y2="123.539" style="stroke:rgb(0,25,115);stroke-width:0.8" />
    <line x1="171.642" y1="123.539" x2="171.716" y2="123.627" style="stroke:rgb(0,25,115);stroke-width:0.8" />
    <line x1="171.716" y1="123.627" x2="171.716" y2="123.627" style="stroke:rgb(0,25,115);stroke-width:0.8" />
    <line x1="171.716" y1="123.627" x2="171.716" y2="123.627" style="stroke:rgb(0,25,115);stroke-width:0.8" />
    <line x1="171.716" y1="123.627" x2="171.716" y2="123.627" style="stroke:rgb(0,25,115);stroke-width:0.8" />
    <line x1="171.716" y1="123.627" x2="171.716" y2="123.627" style="stroke:rgb(0,25,115);stroke-width:0.8" />
    <line x1="171.716" y1="123.627" x2="171.716" y2="123.627" style="stroke:rgb(0,25,115);stroke-width:0.8" />
    <line x1="171.716" y1="123.627" x2="171.716" y2="123.627" style="stroke:rgb(0,25,115);stroke-width:0.8" />
    <line x1="171.716" y1="123.627" x2="171.716" y2="123.627" style="stroke:rgb(0,25,115);stroke-width:0.8" />
    <line x1="171.716" y1="123.627" x2="171.716" y2="123.627" style="stroke:rgb(0,25,115);stroke-width:0.8" />
    <rect x="79.6912" y="159.674" width="4" height="4" style="fill:white;stroke:pink;stroke-width:0;opacity:1" />
    <rect x="109.303" y="97.6673" width="4" height="4" style="fill:white;stroke:pink;stroke-width:0;opacity:1" />
    <line x1="81.6912" y1="161.674" x2="111.303" y2="99.6673" style="stroke:rgb(255,255,255);stroke-width:1.2" />
    <rect x="109.303" y="97.6673" width="4" height="4" style="fill:white;stroke:pink;stroke-width:0;opacity:1" />
    <rect x="140.862" y="87.7212" width="4" height="4" style="fill:white;stroke:pink;stroke-width:0;opacity:1" />
    <line x1="111.303" y1="99.6673" x2="142.862" y2="89.7212" style="stroke:rgb(255,255,255);stroke-width:1.2" />
    <rect x="140.862" y="87.7212" width="4" height="4" style="fill:white;stroke:pink;stroke-width:0;opacity:1" />
    <rect x="169.716" y="121.627" width="4" height="4" style="fill:white;stroke:pink;stroke-width:0;opacity:1" />
    <line x1="142.862" y1="89.7212" x2="171.716" y2="123.627" style="stroke:rgb(255,255,255);stroke-width:1.2" />
    <line x1="123.834" y1="171.624" x2="123.834" y2="171.624" style="stroke:rgb(0,25,115);stroke-width:0.8" />
    <line x1="123.834" y1="171.624" x2="123.929" y2="171.578" style="stroke:rgb(0,25,115);stroke-width:0.8" />
    <line x1="123.929" y1="171.578" x2="124.443" y2="171.329" style="stroke:rgb(0,25,115);stroke-width:0.8" />
    <line x1="124.443" y1="171.329" x2="125.221" y2="170.952" style="stroke:rgb(0,25,115);stroke-width:0.8" />
    <line x1="125.221" y1="170.952" x2="126.25" y2="170.453" style="stroke:rgb(0,25,115);stroke-width:0.8" />
    <line x1="126.25" y1="170.453" x2="127.6" y2="169.799" style="stroke:rgb(0,25,115);stroke-width:0.8" />
    <line x1="127.6" y1="169.799" x2="129.404" y2="168.925" style="stroke:rgb(0,25,115);stroke-width:0.8" />
    <line x1="129.404" y1="168.925" x2="131.805" y2="167.761" style="stroke:rgb(0,25,115);stroke-width:0.8" />
    <line x1="131.805" y1="167.761" x2="134.403" y2="166.502" style="stroke:rgb(0,25,115);stroke-width:0.8" />
    <line x1="134.403" y1="166.502" x2="137.099" y2="165.196" style="stroke:rgb(0,25,115);stroke-width:0.8" />
    <line x1="137.099" y1="165.196" x2="139.88" y2="163.848" style="stroke:rgb(0,25,115);stroke-width:0.8" />
    <line x1="139.88" y1="163.848" x2="142.728" y2="162.468" style="stroke:rgb(0,25,115);stroke-width:0.8" />
    <line x1="142.728" y1="162.468" x2="145.622" y2="161.066" style="stroke:rgb(0,25,115);stroke-width:0.8" />
    <line x1="145.622" y1="161.066" x2="148.537" y2="159.653" style="stroke:rgb(0,25,115);stroke-width:0.8" />
    <line x1="148.537" y1="159.653" x2="151.444" y2="158.244" style="stroke:rgb(0,25,115);stroke-width:0.8" />
    <line x1="151.444" y1="158.244" x2="154.314" y2="156.854" style="stroke:rgb(0,25,115);stroke-width:0.8" />
    <line x1="154.314" y1="156.854" x2="157.114" y2="155.497" style="stroke:rgb(0,25,115);stroke-width:0.8" />
    <line x1="157.114" y1="155.497" x2="159.809" y2="154.191" style="stroke:rgb(0,25,115);stroke-width:0.8" />
    <line x1="159.809" y1="154.191" x2="162.367" y2="152.951" style="stroke:rgb(0,25,115);stroke-width:0.8" />
    <line x1="162.367" y1="152.951" x2="164.755" y2="151.794" style="stroke:rgb(0,25,115);stroke-width:0.8" />
    <line x1="164.755" y1="151.794" x2="166.943" y2="150.733" style="stroke:rgb(0,25,115);stroke-width:0.8" />
    <line x1="166.943" y1="150.733" x2="168.907" y2="149.782" style="stroke:rgb(0,25,115);stroke-width:0.8" />
    <line x1="168.907" y1="149.782" x2="170.681" y2="148.922" style="stroke:rgb(0,25,115);stroke-width:0.8" />
    <line x1="170.681" y1="148.922" x2="172.581" y2="148.002" style="stroke:rgb(0,25,115);stroke-width:0.8" />
    <line x1="172.581" y1="148.002" x2="174.636" y2="147.006" style="stroke:rgb(0,25,115);stroke-width:0.8" />
    <line x1="174.636" y1="147.006" x2="176.816" y2="145.949" style="stroke:rgb(0,25,115);stroke-width:0.8" />
    <line x1="176.816" y1="145.949" x2="179.09" y2="144.847" style="stroke:rgb(0,25,115);stroke-width:0.8" />
    <line x1="179.09" y1="144.847" x2="181.429" y2="143.714" style="stroke:rgb(0,25,115);stroke-width:0.8" />
    <line x1="181.429" y1="143.714" x2="183.801" y2="142.564" style="stroke:rgb(0,25,115);stroke-width:0.8" />
    <line x1="183.801" y1="142.564" x2="186.18" y2="141.411" style="stroke:rgb(0,25,115);stroke-width:0.8" />
    <line x1="186.18" y1="141.411" x2="188.541" y2="140.267" style="stroke:rgb(0,25,115);stroke-width:0.8" />
    <line x1="188.541" y1="140.267" x2="190.861" y2="139.143" style="stroke:rgb(0,25,115);stroke-width:0.8" />
    <line x1="190.861" y1="139.143" x2="193.123" y2="138.047" style="stroke:rgb(0,25,115);stroke-width:0.8" />
    <line x1="193.123" y1="138.047" x2="195.311" y2="136.987" style="stroke:rgb(0,25,115);stroke-width:0.8" />
    <line x1="195.311" y1="136.987" x2="197.414" y2="135.968" style="stroke:rgb(0,25,115);stroke-width:0.8" />
    <line x1="197.414" y1="135.968" x2="199.423" y2="134.994" style="stroke:rgb(0,25,115);stroke-width:0.8" />
    <line x1="199.423" y1="134.994" x2="201.333" y2="134.068" style="stroke:rgb(0,25,115);stroke-width:0.8" />
    <line x1="201.333" y1="134.068" x2="203.141" y2="133.192" style="stroke:rgb(0,25,115);stroke-width:0.8" />
    <line x1="203.141" y1="133.192" x2="204.845" y2="132.366" style="stroke:rgb(0,25,115);stroke-width:0.8" />
    <line x1="204.845" y1="132.366" x2="206.446" y2="131.591" style="stroke:rgb(0,25,115);stroke-width:0.8" />
    <line x1="206.446" y1="131.591" x2="207.871" y2="130.9" style="stroke:rgb(0,25,115);stroke-width:0.8" />
    <line x1="207.871" y1="130.9" x2="208.781" y2="130.459" style="stroke:rgb(0,25,115);stroke-width:0.8" />
    <line x1="208.781" y1="130.459" x2="209.25" y2="130.232" style="stroke:rgb(0,25,115);stroke-width:0.8" />
    <line x1="209.25" y1="130.232" x2="209.317" y2="130.2" style="stroke:rgb(0,25,115);stroke-width:0.8" />
    <line x1="209.317" y1="130.2" x2="209.317" y2="130.2" style="stroke:rgb(0,25,115);stroke-width:0.8" />
    <line x1="209.317" y1="130.2" x2="209.317" y2="130.2" style="stroke:rgb(0,25,115);stroke-width:0.8" />
    <line x1="209.317" y1="130.2" x2="209.317" y2="130.2" style="stroke:rgb(0,25,115);stroke-width:0.8" />
    <line x1="209.317" y1="130.2" x2="209.317" y2="130.2" style="stroke:rgb(0,25,115);stroke-width:0.8" />
    <line x1="209.317" y1="130.2" x2="209.317" y2="130.2" style="stroke:rgb(0,25,115);stroke-width:0.8" />
    <line x1="209.317" y1="130.2" x2="209.317" y2="130.2" style="stroke:rgb(0,25,115);stroke-width:0.8" />
    <line x1="209.317" y1="130.2" x2="209.317" y2="130.2" style="stroke:rgb(0,25,115);stroke-width:0.8" />
    <line x1="209.317" y1="130.2" x2="209.317" y2="130.2" style="stroke:rgb(0,25,115);stroke-width:0.8" />
    <rect x="121.834" y="169.624" width="4" height="4" style="fill:white;stroke:pink;stroke-width:0;opacity:1" />
    <rect x="154.481" y="153.803" width="4" height="4" style="fill:white;stroke:pink;stroke-width:0;opacity:1" />
    <line x1="123.834" y1="171.624" x2="156.481" y2="155.803" style="stroke:rgb(255,255,255);stroke-width:1.2" />
    <rect x="154.481" y="153.803" width="4" height="4" style="fill:white;stroke:pink;stroke-width:0;opacity:1" />
    <rect x="182.693" y="140.132" width="4" height="4" style="fill:white;stroke:pink;stroke-width:0;opacity:1" />
    <line x1="156.481" y1="155.803" x2="184.693" y2="142.132" style="stroke:rgb(255,255,255);stroke-width:1.2" />
    <rect x="182.693" y="140.132" width="4" height="4" style="fill:white;stroke:pink;stroke-width:0;opacity:1" />
    <rect x="207.317" y="128.2" width="4" height="4" style="fill:white;stroke:pink;stroke-width:0;opacity:1" />
    <line x1="184.693" y1="142.132" x2="209.317" y2="130.2" style="stroke:rgb(255,255,255);stroke-width:1.2" />
    <line x1="43.2425" y1="152.596" x2="43.2425" y2="152.596" style="stroke:rgb(0,25,115);stroke-width:0.8" />
    <line x1="43.2425" y1="152.596" x2="43.3227" y2="152.432" style="stroke:rgb(0,25,115);stroke-width:0.8" />
    <line x1="43.3227" y1="152.432" x2="43.7553" y2="151.551" style="stroke:rgb(0,25,115);stroke-width:0.8" />
    <line x1="43.7553" y1="151.551" x2="44.4103" y2="150.216" style="stroke:rgb(0,25,115);stroke-width:0.8" />
    <line x1="44.4103" y1="150.216" x2="45.281" y2="148.442" style="stroke:rgb(0,25,115);stroke-width:0.8" />
    <line x1="45.281" y1="148.442" x2="46.4265" y2="146.108" style="stroke:rgb(0,25,115);stroke-width:0.8" />
    <line x1="46.4265" y1="146.108" x2="47.9662" y2="142.971" style="stroke:rgb(0,25,115);stroke-width:0.8" />
    <line x1="47.9662" y1="142.971" x2="50.0338" y2="138.779" style="stroke:rgb(0,25,115);stroke-width:0.8" />
    <line x1="50.0338" y1="138.779" x2="52.3093" y2="134.326" style="stroke:rgb(0,25,115);stroke-width:0.8" />
    <line x1="52.3093" y1="134.326" x2="54.7161" y2="129.81" style="stroke:rgb(0,25,115);stroke-width:0.8" />
    <line x1="54.7161" y1="129.81" x2="57.246" y2="125.268" style="stroke:rgb(0,25,115);stroke-width:0.8" />
    <line x1="57.246" y1="125.268" x2="59.8864" y2="120.747" style="stroke:rgb(0,25,115);stroke-width:0.8" />
    <line x1="59.8864" y1="120.747" x2="62.6204" y2="116.297" style="stroke:rgb(0,25,115);stroke-width:0.8" />
    <line x1="62.6204" y1="116.297" x2="65.427" y2="111.977" style="stroke:rgb(0,25,115);stroke-width:0.8" />
    <line x1="65.427" y1="111.977" x2="68.2803" y2="107.847" style="stroke:rgb(0,25,115);stroke-width:0.8" />
    <line x1="68.2803" y1="107.847" x2="71.1505" y2="103.973" style="stroke:rgb(0,25,115);stroke-width:0.8" />
    <line x1="71.1505" y1="103.973" x2="74.004" y2="100.42" style="stroke:rgb(0,25,115);stroke-width:0.8" />
    <line x1="74.004" y1="100.42" x2="76.8048" y2="97.2523" style="stroke:rgb(0,25,115);stroke-width:0.8" />
    <line x1="76.8048" y1="97.2523" x2="79.5156" y2="94.5273" style="stroke:rgb(0,25,115);stroke-width:0.8" />
    <line x1="79.5156" y1="94.5273" x2="82.0988" y2="92.2963" style="stroke:rgb(0,25,115);stroke-width:0.8" />
    <line x1="82.0988" y1="92.2963" x2="84.5188" y2="90.5999" style="stroke:rgb(0,25,115);stroke-width:0.8" />
    <line x1="84.5188" y1="90.5999" x2="86.743" y2="89.4663" style="stroke:rgb(0,25,115);stroke-width:0.8" />
    <line x1="86.743" y1="89.4663" x2="88.8074" y2="88.8814" style="stroke:rgb(0,25,115);stroke-width:0.8" />
    <line x1="88.8074" y1="88.8814" x2="91.068" y2="88.6763" style="stroke:rgb(0,25,115);stroke-width:0.8" />
    <line x1="91.068" y1="88.6763" x2="93.5529" y2="88.8163" style="stroke:rgb(0,25,115);stroke-width:0.8" />
    <line x1="93.5529" y1="88.8163" x2="96.2217" y2="89.2865" style="stroke:rgb(0,25,115);stroke-width:0.8" />
    <line x1="96.2217" y1="89.2865" x2="99.0315" y2="90.0647" style="stroke:rgb(0,25,115);stroke-width:0.8" />
    <line x1="99.0315" y1="90.0647" x2="101.939" y2="91.1226" style="stroke:rgb(0,25,115);stroke-width:0.8" />
    <line x1="101.939" y1="91.1226" x2="104.903" y2="92.4277" style="stroke:rgb(0,25,115);stroke-width:0.8" />
    <line x1="104.903" y1="92.4277" x2="107.884" y2="93.945" style="stroke:rgb(0,25,115);stroke-width:0.8" />
    <line x1="107.884" y1="93.945" x2="110.847" y2="95.6386" style="stroke:rgb(0,25,115);stroke-width:0.8" />
    <line x1="110.847" y1="95.6386" x2="113.762" y2="97.4731" style="stroke:rgb(0,25,115);stroke-width:0.8" />
    <line x1="113.762" y1="97.4731" x2="116.604" y2="99.415" style="stroke:rgb(0,25,115);stroke-width:0.8" />
    <line x1="116.604" y1="99.415" x2="119.352" y2="101.433" style="stroke:rgb(0,25,115);stroke-width:0.8" />
    <line x1="119.352" y1="101.433" x2="121.99" y2="103.499" style="stroke:rgb(0,25,115);stroke-width:0.8" />
    <line x1="121.99" y1="103.499" x2="124.508" y2="105.589" style="stroke:rgb(0,25,115);stroke-width:0.8" />
    <line x1="124.508" y1="105.589" x2="126.898" y2="107.681" style="stroke:rgb(0,25,115);stroke-width:0.8" />
    <line x1="126.898" y1="107.681" x2="129.155" y2="109.757" style="stroke:rgb(0,25,115);stroke-width:0.8" />
    <line x1="129.155" y1="109.757" x2="131.28" y2="111.803" style="stroke:rgb(0,25,115);stroke-width:0.8" />
    <line x1="131.28" y1="111.803" x2="133.272" y2="113.808" style="stroke:rgb(0,25,115);stroke-width:0.8" />
    <line x1="133.272" y1="113.808" x2="135.041" y2="115.654" style="stroke:rgb(0,25,115);stroke-width:0.8" />
    <line x1="135.041" y1="115.654" x2="136.167" y2="116.834" style="stroke:rgb(0,25,115);stroke-width:0.8" />
    <line x1="136.167" y1="116.834" x2="136.746" y2="117.442" style="stroke:rgb(0,25,115);stroke-width:0.8" />
    <line x1="136.746" y1="117.442" x2="136.828" y2="117.528" style="stroke:rgb(0,25,115);stroke-width:0.8" />
    <line x1="136.828" y1="117.528" x2="136.828" y2="117.528" style="stroke:rgb(0,25,115);stroke-width:0.8" />
    <line x1="136.828" y1="117.528" x2="136.828" y2="117.528" style="stroke:rgb(0,25,115);stroke-width:0.8" />
    <line x1="136.828" y1="117.528" x2="136.828" y2="117.528" style="stroke:rgb(0,25,115);stroke-width:0.8" />
    <line x1="136.828" y1="117.528" x2="136.828" y2="117.528" style="stroke:rgb(0,25,115);stroke-width:0.8" />
    <line x1="136.828" y1="117.528" x2="136.828" y2="117.528" style="stroke:rgb(0,25,115);stroke-width:0.8" />
    <line x1="136.828" y1="117.528" x2="136.828" y2="117.528" style="stroke:rgb(0,25,115);stroke-width:0.8" />
    <line x1="136.828" y1="117.528" x2="136.828" y2="117.528" style="stroke:rgb(0,25,115);stroke-width:0.8" />
    <line x1="136.828" y1="117.528" x2="136.828" y2="117.528" style="stroke:rgb(0,25,115);stroke-width:0.8" />
    <rect x="41.2425" y="150.596" width="4" height="4" style="fill:white;stroke:pink;stroke-width:0;opacity:1" />
    <rect x="70.282" y="91.4227" width="4" height="4" style="fill:white;stroke:pink;stroke-width:0;opacity:1" />
    <line x1="43.2425" y1="152.596" x2="72.282" y2="93.4227" style="stroke:rgb(255,255,255);stroke-width:1.2" />
    <rect x="70.282" y="91.4227" width="4" height="4" style="fill:white;stroke:pink;stroke-width:0;opacity:1" />
    <rect x="103.139" y="82.2871" width="4" height="4" style="fill:white;stroke:pink;stroke-width:0;opacity:1" />
    <line x1="72.282" y1="93.4227" x2="105.139" y2="84.2871" style="stroke:rgb(255,255,255);stroke-width:1.2" />
    <rect x="103.139" y="82.2871" width="4" height="4" style="fill:white;stroke:pink;stroke-width:0;opacity:1" />
    <rect x="134.828" y="115.528" width="4" height="4" style="fill:white;stroke:pink;stroke-width:0;opacity:1" />
    <line x1="105.139" y1="84.2871" x2="136.828" y2="117.528" style="stroke:rgb(255,255,255);stroke-width:1.2" />
    <line x1="8.02237" y1="144.28" x2="8.02237" y2="144.28" style="stroke:rgb(0,25,115);stroke-width:0.8" />
    <line x1="8.02237" y1="144.28" x2="8.1274" y2="144.245" style="stroke:rgb(0,25,115);stroke-width:0.8" />
    <line x1="8.1274" y1="144.245" x2="8.69327" y2="144.054" style="stroke:rgb(0,25,115);stroke-width:0.8" />
    <line x1="8.69327" y1="144.054" x2="9.54858" y2="143.766" style="stroke:rgb(0,25,115);stroke-width:0.8" />
    <line x1="9.54858" y1="143.766" x2="10.6826" y2="143.385" style="stroke:rgb(0,25,115);stroke-width:0.8" />
    <line x1="10.6826" y1="143.385" x2="12.1694" y2="142.884" style="stroke:rgb(0,25,115);stroke-width:0.8" />
    <line x1="12.1694" y1="142.884" x2="14.159" y2="142.215" style="stroke:rgb(0,25,115);stroke-width:0.8" />
    <line x1="14.159" y1="142.215" x2="16.811" y2="141.322" style="stroke:rgb(0,25,115);stroke-width:0.8" />
    <line x1="16.811" y1="141.322" x2="19.6833" y2="140.356" style="stroke:rgb(0,25,115);stroke-width:0.8" />
    <line x1="19.6833" y1="140.356" x2="22.6691" y2="139.351" style="stroke:rgb(0,25,115);stroke-width:0.8" />
    <line x1="22.6691" y1="139.351" x2="25.7535" y2="138.313" style="stroke:rgb(0,25,115);stroke-width:0.8" />
    <line x1="25.7535" y1="138.313" x2="28.9172" y2="137.248" style="stroke:rgb(0,25,115);stroke-width:0.8" />
    <line x1="28.9172" y1="137.248" x2="32.1371" y2="136.164" style="stroke:rgb(0,25,115);stroke-width:0.8" />
    <line x1="32.1371" y1="136.164" x2="35.3855" y2="135.071" style="stroke:rgb(0,25,115);stroke-width:0.8" />
    <line x1="35.3855" y1="135.071" x2="38.6315" y2="133.978" style="stroke:rgb(0,25,115);stroke-width:0.8" />
    <line x1="38.6315" y1="133.978" x2="41.8406" y2="132.898" style="stroke:rgb(0,25,115);stroke-width:0.8" />
    <line x1="41.8406" y1="132.898" x2="44.9759" y2="131.843" style="stroke:rgb(0,25,115);stroke-width:0.8" />
    <line x1="44.9759" y1="131.843" x2="47.9993" y2="130.826" style="stroke:rgb(0,25,115);stroke-width:0.8" />
    <line x1="47.9993" y1="130.826" x2="50.8726" y2="129.859" style="stroke:rgb(0,25,115);stroke-width:0.8" />
    <line x1="50.8726" y1="129.859" x2="53.5591" y2="128.954" style="stroke:rgb(0,25,115);stroke-width:0.8" />
    <line x1="53.5591" y1="128.954" x2="56.0247" y2="128.125" style="stroke:rgb(0,25,115);stroke-width:0.8" />
    <line x1="56.0247" y1="128.125" x2="58.2395" y2="127.379" style="stroke:rgb(0,25,115);stroke-width:0.8" />
    <line x1="58.2395" y1="127.379" x2="60.2424" y2="126.705" style="stroke:rgb(0,25,115);stroke-width:0.8" />
    <line x1="60.2424" y1="126.705" x2="62.3893" y2="125.983" style="stroke:rgb(0,25,115);stroke-width:0.8" />
    <line x1="62.3893" y1="125.983" x2="64.714" y2="125.2" style="stroke:rgb(0,25,115);stroke-width:0.8" />
    <line x1="64.714" y1="125.2" x2="67.1836" y2="124.369" style="stroke:rgb(0,25,115);stroke-width:0.8" />
    <line x1="67.1836" y1="124.369" x2="69.7637" y2="123.501" style="stroke:rgb(0,25,115);stroke-width:0.8" />
    <line x1="69.7637" y1="123.501" x2="72.4196" y2="122.607" style="stroke:rgb(0,25,115);stroke-width:0.8" />
    <line x1="72.4196" y1="122.607" x2="75.1179" y2="121.699" style="stroke:rgb(0,25,115);stroke-width:0.8" />
    <line x1="75.1179" y1="121.699" x2="77.8272" y2="120.787" style="stroke:rgb(0,25,115);stroke-width:0.8" />
    <line x1="77.8272" y1="120.787" x2="80.5191" y2="119.881" style="stroke:rgb(0,25,115);stroke-width:0.8" />
    <line x1="80.5191" y1="119.881" x2="83.1684" y2="118.989" style="stroke:rgb(0,25,115);stroke-width:0.8" />
    <line x1="83.1684" y1="118.989" x2="85.7542" y2="118.119" style="stroke:rgb(0,25,115);stroke-width:0.8" />
    <line x1="85.7542" y1="118.119" x2="88.2592" y2="117.276" style="stroke:rgb(0,25,115);stroke-width:0.8" />
    <line x1="88.2592" y1="117.276" x2="90.6697" y2="116.465" style="stroke:rgb(0,25,115);stroke-width:0.8" />
    <line x1="90.6697" y1="116.465" x2="92.9758" y2="115.688" style="stroke:rgb(0,25,115);stroke-width:0.8" />
    <line x1="92.9758" y1="115.688" x2="95.1704" y2="114.95" style="stroke:rgb(0,25,115);stroke-width:0.8" />
    <line x1="95.1704" y1="114.95" x2="97.2496" y2="114.25" style="stroke:rgb(0,25,115);stroke-width:0.8" />
    <line x1="97.2496" y1="114.25" x2="99.2116" y2="113.59" style="stroke:rgb(0,25,115);stroke-width:0.8" />
    <line x1="99.2116" y1="113.59" x2="101.057" y2="112.969" style="stroke:rgb(0,25,115);stroke-width:0.8" />
    <line x1="101.057" y1="112.969" x2="102.7" y2="112.416" style="stroke:rgb(0,25,115);stroke-width:0.8" />
    <line x1="102.7" y1="112.416" x2="103.75" y2="112.062" style="stroke:rgb(0,25,115);stroke-width:0.8" />
    <line x1="103.75" y1="112.062" x2="104.292" y2="111.88" style="stroke:rgb(0,25,115);stroke-width:0.8" />
    <line x1="104.292" y1="111.88" x2="104.369" y2="111.854" style="stroke:rgb(0,25,115);stroke-width:0.8" />
    <line x1="104.369" y1="111.854" x2="104.369" y2="111.854" style="stroke:rgb(0,25,115);stroke-width:0.8" />
    <line x1="104.369" y1="111.854" x2="104.369" y2="111.854" style="stroke:rgb(0,25,115);stroke-width:0.8" />
    <line x1="104.369" y1="111.854" x2="104.369" y2="111.854" style="stroke:rgb(0,25,115);stroke-width:0.8" />
    <line x1="104.369" y1="111.854" x2="104.369" y2="111.854" style="stroke:rgb(0,25,115);stroke-width:0.8" />
    <line x1="104.369" y1="111.854" x2="104.369" y2="111.854" style="stroke:rgb(0,25,115);stroke-width:0.8" />
    <line x1="104.369" y1="111.854" x2="104.369" y2="111.854" style="stroke:rgb(0,25,115);stroke-width:0.8" />
    <line x1="104.369" y1="111.854" x2="104.369" y2="111.854" style="stroke:rgb(0,25,115);stroke-width:0.8" />
    <line x1="104.369" y1="111.854" x2="104.369" y2="111.854" style="stroke:rgb(0,25,115);stroke-width:0.8" />
    <rect x="6.02237" y="142.28" width="4" height="4" style="fill:white;stroke:pink;stroke-width:0;opacity:1" />
    <rect x="42.267" y="130.082" width="4" height="4" style="fill:white;stroke:pink;stroke-width:0;opacity:1" />
    <line x1="8.02237" y1="144.28" x2="44.267" y2="132.082" style="stroke:rgb(255,255,255);stroke-width:1.2" />
    <rect x="42.267" y="130.082" width="4" height="4" style="fill:white;stroke:pink;stroke-width:0;opacity:1" />
    <rect x="74.1331" y="119.357" width="4" height="4" style="fill:white;stroke:pink;stroke-width:0;opacity:1" />
    <line x1="44.267" y1="132.082" x2="76.1331" y2="121.357" style="stroke:rgb(255,255,255);stroke-width:1.2" />
    <rect x="74.1331" y="119.357" width="4" height="4" style="fill:white;stroke:pink;stroke-width:0;opacity:1" />
    <rect x="102.369" y="109.854" width="4" height="4" style="fill:white;stroke:pink;stroke-width:0;opacity:1" />
    <line x1="76.1331" y1="121.357" x2="104.369" y2="111.854" style="stroke:rgb(255,255,255);stroke-width:1.2" />
</svg>