<svg version="1.1" xmlns:xlink="http://www.w3.org/1999/xlink" xmlns="http://www.w3.org/2000/svg" width="800" height="400">
    <rect width="800" height="400" stroke="black" stroke-width="0" fill="rgb(120,120,120)"/>
    <line x1="271" y1="177" x2="377" y2="74" style="stroke:rgb(255,0,0);stroke-width:1.2" />
    <line x1="377" y1="74" x2="511" y2="67" style="stroke:rgb(255,0,0);stroke-width:1.2" />
    <line x1="511" y1="67" x2="596" y2="113" style="stroke:rgb(255,0,0);stroke-width:1.2" />
    <line x1="275" y1="232" x2="392" y2="107" style="stroke:rgb(255,0,0);stroke-width:1.2" />
    <line x1="392" y1="107" x2="534" y2="105" style="stroke:rgb(255,0,0);stroke-width:1.2" />
    <line x1="534" y1="105" x2="605" y2="172" style="stroke:rgb(255,0,0);stroke-width:1.2" />
    <line x1="279" y1="298" x2="413" y2="184" style="stroke:rgb(255,0,0);stroke-width:1.2" />
    <line x1="413" y1="184" x2="561" y2="175" style="stroke:rgb(255,0,0);stroke-width:1.2" />
    <line x1="561" y1="175" x2="630" y2="235" style="stroke:rgb(255,0,0);stroke-width:1.2" />
    <line x1="284" y1="378" x2="428" y2="297" style="stroke:rgb(255,0,0);stroke-width:1.2" />
    <line x1="428" y1="297" x2="569" y2="278" style="stroke:rgb(255,0,0);stroke-width:1.2" />
    <line x1="569" y1="278" x2="682" y2="297" style="stroke:rgb(255,0,0);stroke-width:1.2" />
    <line x1="271" y1="177" x2="275" y2="232" style="stroke:rgb(255,0,0);stroke-width:1.2" />
    <line x1="377" y1="74" x2="392" y2="107" style="stroke:rgb(255,0,0);stroke-width:1.2" />
    <line x1="511" y1="67" x2="534" y2="105" style="stroke:rgb(255,0,0);stroke-width:1.2" />
    <line x1="596" y1="113" x2="605" y2="172" style="stroke:rgb(255,0,0);stroke-width:1.2" />
    <line x1="275" y1="232" x2="279" y2="298" style="stroke:rgb(255,0,0);stroke-width:1.2" />
    <line x1="392" y1="107" x2="413" y2="184" style="stroke:rgb(255,0,0);stroke-width:1.2" />
    <line x1="534" y1="105" x2="561" y2="175" style="stroke:rgb(255,0,0);stroke-width:1.2" />
    <line x1="605" y1="172" x2="630" y2="235" style="stroke:rgb(255,0,0);stroke-width:1.2" />
    <line x1="279" y1="298" x2="284" y2="378" style="stroke:rgb(255,0,0);stroke-width:1.2" />
    <line x1="413" y1="184" x2="428" y2="297" style="stroke:rgb(255,0,0);stroke-width:1.2" />
    <line x1="561" y1="175" x2="569" y2="278" style="stroke:rgb(255,0,0);stroke-width:1.2" />
    <line x1="630" y1="235" x2="682" y2="297" style="stroke:rgb(255,0,0);stroke-width:1.2" />
    <line x1="271" y1="177" x2="300" y2="152" style="stroke:rgb(0,0,0);stroke-width:1.2" />
    <line x1="300" y1="152" x2="333" y2="130" style="stroke:rgb(0,0,0);stroke-width:1.2" />
    <line x1="333" y1="130" x2="369" y2="113" style="stroke:rgb(0,0,0);stroke-width:1.2" />
    <line x1="369" y1="113" x2="407" y2="99" style="stroke:rgb(0,0,0);stroke-width:1.2" />
    <line x1="407" y1="99" x2="445" y2="91" style="stroke:rgb(0,0,0);stroke-width:1.2" />
    <line x1="445" y1="91" x2="481" y2="88" style="stroke:rgb(0,0,0);stroke-width:1.2" />
    <line x1="481" y1="88" x2="516" y2="89" style="stroke:rgb(0,0,0);stroke-width:1.2" />
    <line x1="516" y1="89" x2="547" y2="94" style="stroke:rgb(0,0,0);stroke-width:1.2" />
    <line x1="547" y1="94" x2="574" y2="102" style="stroke:rgb(0,0,0);stroke-width:1.2" />
    <line x1="574" y1="102" x2="596" y2="113" style="stroke:rgb(0,0,0);stroke-width:1.2" />
    <line x1="275" y1="232" x2="304" y2="204" style="stroke:rgb(0,0,0);stroke-width:1.2" />
    <line x1="304" y1="204" x2="339" y2="179" style="stroke:rgb(0,0,0);stroke-width:1.2" />
    <line x1="339" y1="179" x2="378" y2="159" style="stroke:rgb(0,0,0);stroke-width:1.2" />
    <line x1="378" y1="159" x2="419" y2="143" style="stroke:rgb(0,0,0);stroke-width:1.2" />
    <line x1="419" y1="143" x2="460" y2="135" style="stroke:rgb(0,0,0);stroke-width:1.2" />
    <line x1="460" y1="135" x2="499" y2="133" style="stroke:rgb(0,0,0);stroke-width:1.2" />
    <line x1="499" y1="133" x2="533" y2="137" style="stroke:rgb(0,0,0);stroke-width:1.2" />
    <line x1="533" y1="137" x2="563" y2="145" style="stroke:rgb(0,0,0);stroke-width:1.2" />
    <line x1="563" y1="145" x2="587" y2="157" style="stroke:rgb(0,0,0);stroke-width:1.2" />
    <line x1="587" y1="157" x2="605" y2="172" style="stroke:rgb(0,0,0);stroke-width:1.2" />
    <line x1="279" y1="298" x2="312" y2="273" style="stroke:rgb(0,0,0);stroke-width:1.2" />
    <line x1="312" y1="273" x2="351" y2="249" style="stroke:rgb(0,0,0);stroke-width:1.2" />
    <line x1="351" y1="249" x2="393" y2="229" style="stroke:rgb(0,0,0);stroke-width:1.2" />
    <line x1="393" y1="229" x2="437" y2="215" style="stroke:rgb(0,0,0);stroke-width:1.2" />
    <line x1="437" y1="215" x2="481" y2="206" style="stroke:rgb(0,0,0);stroke-width:1.2" />
    <line x1="481" y1="206" x2="521" y2="202" style="stroke:rgb(0,0,0);stroke-width:1.2" />
    <line x1="521" y1="202" x2="557" y2="205" style="stroke:rgb(0,0,0);stroke-width:1.2" />
    <line x1="557" y1="205" x2="588" y2="212" style="stroke:rgb(0,0,0);stroke-width:1.2" />
    <line x1="588" y1="212" x2="612" y2="222" style="stroke:rgb(0,0,0);stroke-width:1.2" />
    <line x1="612" y1="222" x2="630" y2="235" style="stroke:rgb(0,0,0);stroke-width:1.2" />
    <line x1="284" y1="378" x2="329" y2="355" style="stroke:rgb(0,0,0);stroke-width:1.2" />
    <line x1="329" y1="355" x2="373" y2="335" style="stroke:rgb(0,0,0);stroke-width:1.2" />
    <line x1="373" y1="335" x2="416" y2="320" style="stroke:rgb(0,0,0);stroke-width:1.2" />
    <line x1="416" y1="320" x2="458" y2="308" style="stroke:rgb(0,0,0);stroke-width:1.2" />
    <line x1="458" y1="308" x2="499" y2="299" style="stroke:rgb(0,0,0);stroke-width:1.2" />
    <line x1="499" y1="299" x2="538" y2="293" style="stroke:rgb(0,0,0);stroke-width:1.2" />
    <line x1="538" y1="293" x2="576" y2="291" style="stroke:rgb(0,0,0);stroke-width:1.2" />
    <line x1="576" y1="291" x2="612" y2="290" style="stroke:rgb(0,0,0);stroke-width:1.2" />
    <line x1="612" y1="290" x2="648" y2="293" style="stroke:rgb(0,0,0);stroke-width:1.2" />
    <line x1="648" y1="293" x2="682" y2="297" style="stroke:rgb(0,0,0);stroke-width:1.2" />
</svg>